<svg width="491" height="127" viewBox="0 0 491 127" fill="none" xmlns="http://www.w3.org/2000/svg">
<mask id="path-1-outside-1_2288_2902" maskUnits="userSpaceOnUse" x="4" y="9" width="473" height="112" fill="black">
<rect fill="white" x="4" y="9" width="473" height="112"/>
<path d="M26.04 35V83L46.8 71V23L57.12 17V113L46.8 119V71C46.8 73.08 46.32 75.32 45.36 77.72C44.4 80.12 43.12 82.36 41.52 84.44C39.92 86.44 38.2 87.96 36.36 89L15.6 101V53C15.6 50.84 16.08 48.6 17.04 46.28C18 43.88 19.28 41.68 20.88 39.68C22.48 37.6 24.2 36.04 26.04 35ZM46.8 71V119L36.36 113V65L46.8 71ZM57.12 17L46.8 23L36.36 17L46.8 11L57.12 17ZM46.8 23V71L36.36 65V17L46.8 23ZM46.8 71L26.04 83L15.6 77L36.36 65L46.8 71ZM26.04 35C24.2 36.04 22.48 37.6 20.88 39.68C19.28 41.68 18 43.88 17.04 46.28C16.08 48.6 15.6 50.84 15.6 53V101L5.16 95V47C5.16 44.84 5.64 42.6 6.6 40.28C7.56 37.88 8.84 35.68 10.44 33.68C12.04 31.6 13.76 30.04 15.6 29L26.04 35ZM92.7038 20.6C96.3838 18.44 99.7838 17.6 102.904 18.08C106.104 18.48 108.664 19.96 110.584 22.52C112.504 25 113.464 28.36 113.464 32.6V80.6C113.464 83.8 112.904 87.16 111.784 90.68C110.664 94.2 109.144 97.64 107.224 101C105.304 104.36 103.104 107.4 100.624 110.12C98.1438 112.84 95.5038 115 92.7038 116.6C89.0238 118.68 85.5838 119.52 82.3838 119.12C79.2638 118.72 76.7438 117.24 74.8238 114.68C72.9038 112.2 71.9438 108.84 71.9438 104.6V56.6C71.9438 53.4 72.5038 50.04 73.6238 46.52C74.7438 43 76.2638 39.56 78.1838 36.2C80.1038 32.84 82.3038 29.8 84.7838 27.08C87.3438 24.36 89.9838 22.2 92.7038 20.6ZM103.144 38.6C103.144 35.4 102.104 33.2 100.024 32C97.9438 30.8 95.5038 31 92.7038 32.6C90.8638 33.64 89.1438 35.2 87.5438 37.28C86.0238 39.28 84.7838 41.48 83.8238 43.88C82.8638 46.2 82.3838 48.44 82.3838 50.6V98.6C82.3838 101.8 83.4238 104 85.5038 105.2C87.5838 106.4 89.9838 106.2 92.7038 104.6C94.5438 103.56 96.2638 102.04 97.8638 100.04C99.4638 97.96 100.744 95.72 101.704 93.32C102.664 90.92 103.144 88.68 103.144 86.6V38.6ZM100.024 32C102.104 33.2 103.144 35.4 103.144 38.6V86.6C103.144 88.68 102.664 90.92 101.704 93.32C100.744 95.72 99.4638 97.96 97.8638 100.04C96.2638 102.04 94.5438 103.56 92.7038 104.6C89.9838 106.2 87.5838 106.4 85.5038 105.2L75.0638 99.2C77.1438 100.4 79.5838 100.2 82.3838 98.6C84.1438 97.56 85.8238 96.04 87.4238 94.04C89.0238 91.96 90.3038 89.72 91.2638 87.32C92.2238 84.92 92.7038 82.68 92.7038 80.6V32.6C92.7038 29.4 91.6638 27.2 89.5838 26L100.024 32ZM107.224 19.4C105.304 18.36 103.104 17.92 100.624 18.08C98.1438 18.16 95.5038 19 92.7038 20.6C89.9838 22.2 87.3438 24.36 84.7838 27.08C82.3038 29.8 80.1038 32.84 78.1838 36.2C76.2638 39.56 74.7438 43 73.6238 46.52C72.5038 50.04 71.9438 53.4 71.9438 56.6V104.6C71.9438 107.8 72.5038 110.52 73.6238 112.76C74.7438 115 76.2638 116.68 78.1838 117.8L67.7438 111.8C65.9038 110.68 64.3838 109 63.1838 106.76C62.0638 104.52 61.5038 101.8 61.5038 98.6V50.6C61.5038 47.4 62.0638 44.04 63.1838 40.52C64.3038 37 65.8238 33.56 67.7438 30.2C69.7438 26.84 71.9838 23.8 74.4638 21.08C76.9438 18.36 79.5838 16.2 82.3838 14.6C85.1038 13 87.7038 12.16 90.1838 12.08C92.7438 11.92 94.9838 12.36 96.9038 13.4L107.224 19.4ZM138.728 35V83L159.488 71V23L169.808 17V113L159.488 119V71C159.488 73.08 159.008 75.32 158.048 77.72C157.088 80.12 155.808 82.36 154.208 84.44C152.608 86.44 150.888 87.96 149.048 89L128.288 101V53C128.288 50.84 128.768 48.6 129.728 46.28C130.688 43.88 131.968 41.68 133.568 39.68C135.168 37.6 136.888 36.04 138.728 35ZM159.488 71V119L149.048 113V65L159.488 71ZM169.808 17L159.488 23L149.048 17L159.488 11L169.808 17ZM159.488 23V71L149.048 65V17L159.488 23ZM159.488 71L138.728 83L128.288 77L149.048 65L159.488 71ZM138.728 35C136.888 36.04 135.168 37.6 133.568 39.68C131.968 41.68 130.688 43.88 129.728 46.28C128.768 48.6 128.288 50.84 128.288 53V101L117.848 95V47C117.848 44.84 118.328 42.6 119.288 40.28C120.248 37.88 121.528 35.68 123.128 33.68C124.728 31.6 126.448 30.04 128.288 29L138.728 35ZM206.405 52.5C206.405 50.52 206.845 48.4667 207.725 46.34C208.605 44.14 209.779 42.1233 211.245 40.29C212.712 38.3833 214.289 36.9533 215.975 36L249.305 16.75V27.75L215.975 47V71.2L249.305 51.95V62.95L215.975 82.2V106.4L249.305 87.15V98.15L215.975 117.4C213.409 118.867 211.172 119.05 209.265 117.95C207.359 116.85 206.405 114.833 206.405 111.9V52.5ZM249.305 87.15L215.975 106.4L206.405 100.9L239.735 81.65L249.305 87.15ZM249.305 51.95L215.975 71.2L206.405 65.7L239.735 46.45L249.305 51.95ZM249.305 16.75L215.975 36C214.289 36.9533 212.712 38.3833 211.245 40.29C209.779 42.1233 208.605 44.14 207.725 46.34C206.845 48.4667 206.405 50.52 206.405 52.5V111.9C206.405 114.833 207.359 116.85 209.265 117.95L199.695 112.45C197.789 111.35 196.835 109.333 196.835 106.4V47C196.835 45.02 197.275 42.9667 198.155 40.84C199.035 38.64 200.209 36.6233 201.675 34.79C203.142 32.8833 204.719 31.4533 206.405 30.5L239.735 11.25L249.305 16.75ZM296.218 77.25L272.458 91V113L262.888 118.5V37.1L296.218 17.85C298.711 16.3833 300.911 16.2 302.818 17.3C304.798 18.4 305.788 20.4167 305.788 23.35V49.75C305.788 51.6567 305.311 53.71 304.358 55.91C303.478 58.11 302.305 60.1633 300.838 62.07C299.445 63.9033 297.905 65.2967 296.218 66.25C298.711 64.7833 300.911 64.6 302.818 65.7C304.798 66.8 305.788 68.8167 305.788 71.75V93.75L296.218 99.25V77.25ZM296.218 66.25V28.85L272.458 42.6V80L296.218 66.25ZM296.218 77.25V99.25L286.648 93.75V71.75L296.218 77.25ZM302.928 65.7C300.948 64.6 298.711 64.7833 296.218 66.25L286.648 60.75C289.215 59.2833 291.451 59.1 293.358 60.2L302.928 65.7ZM296.218 28.85V66.25L286.648 60.75V23.35L296.218 28.85ZM296.218 66.25L272.458 80L262.888 74.5L286.648 60.75L296.218 66.25ZM302.928 17.3C300.948 16.2 298.711 16.3833 296.218 17.85L262.888 37.1L253.318 31.6L286.648 12.35C289.215 10.8833 291.451 10.7 293.358 11.8L302.928 17.3ZM262.888 37.1V118.5L253.318 113V31.6L262.888 37.1ZM352.7 77.25L328.94 91V113L319.37 118.5V37.1L352.7 17.85C355.194 16.3833 357.394 16.2 359.3 17.3C361.28 18.4 362.27 20.4167 362.27 23.35V49.75C362.27 51.6567 361.794 53.71 360.84 55.91C359.96 58.11 358.787 60.1633 357.32 62.07C355.927 63.9033 354.387 65.2967 352.7 66.25C355.194 64.7833 357.394 64.6 359.3 65.7C361.28 66.8 362.27 68.8167 362.27 71.75V93.75L352.7 99.25V77.25ZM352.7 66.25V28.85L328.94 42.6V80L352.7 66.25ZM352.7 77.25V99.25L343.13 93.75V71.75L352.7 77.25ZM359.41 65.7C357.43 64.6 355.194 64.7833 352.7 66.25L343.13 60.75C345.697 59.2833 347.934 59.1 349.84 60.2L359.41 65.7ZM352.7 28.85V66.25L343.13 60.75V23.35L352.7 28.85ZM352.7 66.25L328.94 80L319.37 74.5L343.13 60.75L352.7 66.25ZM359.41 17.3C357.43 16.2 355.194 16.3833 352.7 17.85L319.37 37.1L309.8 31.6L343.13 12.35C345.697 10.8833 347.934 10.7 349.84 11.8L359.41 17.3ZM319.37 37.1V118.5L309.8 113V31.6L319.37 37.1ZM385.423 31.6L409.183 17.85C411.676 16.3833 413.876 16.2 415.783 17.3C417.763 18.4 418.753 20.4167 418.753 23.35V87.15C418.753 89.0567 418.276 91.11 417.323 93.31C416.443 95.51 415.269 97.5633 413.803 99.47C412.409 101.303 410.869 102.697 409.183 103.65L385.423 117.4C382.856 118.867 380.619 119.05 378.713 117.95C376.806 116.85 375.853 114.833 375.853 111.9V48.1C375.853 46.12 376.293 44.0667 377.173 41.94C378.053 39.74 379.226 37.7233 380.693 35.89C382.159 33.9833 383.736 32.5533 385.423 31.6ZM385.423 106.4L409.183 92.65V28.85L385.423 42.6V106.4ZM409.183 28.85V92.65L399.613 87.15V23.35L409.183 28.85ZM409.183 92.65L385.423 106.4L375.853 100.9L399.613 87.15L409.183 92.65ZM415.893 17.3C413.913 16.2 411.676 16.3833 409.183 17.85L385.423 31.6C383.736 32.5533 382.159 33.9833 380.693 35.89C379.226 37.7233 378.053 39.74 377.173 41.94C376.293 44.0667 375.853 46.12 375.853 48.1V111.9C375.853 114.833 376.806 116.85 378.713 117.95L369.143 112.45C367.236 111.35 366.283 109.333 366.283 106.4V42.6C366.283 40.62 366.723 38.5667 367.603 36.44C368.483 34.24 369.656 32.2233 371.123 30.39C372.589 28.4833 374.166 27.0533 375.853 26.1L399.613 12.35C402.179 10.8833 404.416 10.7 406.323 11.8L415.893 17.3ZM465.665 77.25L441.905 91V113L432.335 118.5V37.1L465.665 17.85C468.158 16.3833 470.358 16.2 472.265 17.3C474.245 18.4 475.235 20.4167 475.235 23.35V49.75C475.235 51.6567 474.758 53.71 473.805 55.91C472.925 58.11 471.752 60.1633 470.285 62.07C468.892 63.9033 467.352 65.2967 465.665 66.25C468.158 64.7833 470.358 64.6 472.265 65.7C474.245 66.8 475.235 68.8167 475.235 71.75V93.75L465.665 99.25V77.25ZM465.665 66.25V28.85L441.905 42.6V80L465.665 66.25ZM465.665 77.25V99.25L456.095 93.75V71.75L465.665 77.25ZM472.375 65.7C470.395 64.6 468.158 64.7833 465.665 66.25L456.095 60.75C458.662 59.2833 460.898 59.1 462.805 60.2L472.375 65.7ZM465.665 28.85V66.25L456.095 60.75V23.35L465.665 28.85ZM465.665 66.25L441.905 80L432.335 74.5L456.095 60.75L465.665 66.25ZM472.375 17.3C470.395 16.2 468.158 16.3833 465.665 17.85L432.335 37.1L422.765 31.6L456.095 12.35C458.662 10.8833 460.898 10.7 462.805 11.8L472.375 17.3ZM432.335 37.1V118.5L422.765 113V31.6L432.335 37.1Z"/>
</mask>
<path d="M26.04 35V83L46.8 71V23L57.12 17V113L46.8 119V71C46.8 73.08 46.32 75.32 45.36 77.72C44.4 80.12 43.12 82.36 41.52 84.44C39.92 86.44 38.2 87.96 36.36 89L15.6 101V53C15.6 50.84 16.08 48.6 17.04 46.28C18 43.88 19.28 41.68 20.88 39.68C22.48 37.6 24.2 36.04 26.04 35ZM46.8 71V119L36.36 113V65L46.8 71ZM57.12 17L46.8 23L36.36 17L46.8 11L57.12 17ZM46.8 23V71L36.36 65V17L46.8 23ZM46.8 71L26.04 83L15.6 77L36.36 65L46.8 71ZM26.04 35C24.2 36.04 22.48 37.6 20.88 39.68C19.28 41.68 18 43.88 17.04 46.28C16.08 48.6 15.6 50.84 15.6 53V101L5.16 95V47C5.16 44.84 5.64 42.6 6.6 40.28C7.56 37.88 8.84 35.68 10.44 33.68C12.04 31.6 13.76 30.04 15.6 29L26.04 35ZM92.7038 20.6C96.3838 18.44 99.7838 17.6 102.904 18.08C106.104 18.48 108.664 19.96 110.584 22.52C112.504 25 113.464 28.36 113.464 32.6V80.6C113.464 83.8 112.904 87.16 111.784 90.68C110.664 94.2 109.144 97.64 107.224 101C105.304 104.36 103.104 107.4 100.624 110.12C98.1438 112.84 95.5038 115 92.7038 116.6C89.0238 118.68 85.5838 119.52 82.3838 119.12C79.2638 118.72 76.7438 117.24 74.8238 114.68C72.9038 112.2 71.9438 108.84 71.9438 104.6V56.6C71.9438 53.4 72.5038 50.04 73.6238 46.52C74.7438 43 76.2638 39.56 78.1838 36.2C80.1038 32.84 82.3038 29.8 84.7838 27.08C87.3438 24.36 89.9838 22.2 92.7038 20.6ZM103.144 38.6C103.144 35.4 102.104 33.2 100.024 32C97.9438 30.8 95.5038 31 92.7038 32.6C90.8638 33.64 89.1438 35.2 87.5438 37.28C86.0238 39.28 84.7838 41.48 83.8238 43.88C82.8638 46.2 82.3838 48.44 82.3838 50.6V98.6C82.3838 101.8 83.4238 104 85.5038 105.2C87.5838 106.4 89.9838 106.2 92.7038 104.6C94.5438 103.56 96.2638 102.04 97.8638 100.04C99.4638 97.96 100.744 95.72 101.704 93.32C102.664 90.92 103.144 88.68 103.144 86.6V38.6ZM100.024 32C102.104 33.2 103.144 35.4 103.144 38.6V86.6C103.144 88.68 102.664 90.92 101.704 93.32C100.744 95.72 99.4638 97.96 97.8638 100.04C96.2638 102.04 94.5438 103.56 92.7038 104.6C89.9838 106.2 87.5838 106.4 85.5038 105.2L75.0638 99.2C77.1438 100.4 79.5838 100.2 82.3838 98.6C84.1438 97.56 85.8238 96.04 87.4238 94.04C89.0238 91.96 90.3038 89.72 91.2638 87.32C92.2238 84.92 92.7038 82.68 92.7038 80.6V32.6C92.7038 29.4 91.6638 27.2 89.5838 26L100.024 32ZM107.224 19.4C105.304 18.36 103.104 17.92 100.624 18.08C98.1438 18.16 95.5038 19 92.7038 20.6C89.9838 22.2 87.3438 24.36 84.7838 27.08C82.3038 29.8 80.1038 32.84 78.1838 36.2C76.2638 39.56 74.7438 43 73.6238 46.52C72.5038 50.04 71.9438 53.4 71.9438 56.6V104.6C71.9438 107.8 72.5038 110.52 73.6238 112.76C74.7438 115 76.2638 116.68 78.1838 117.8L67.7438 111.8C65.9038 110.68 64.3838 109 63.1838 106.76C62.0638 104.52 61.5038 101.8 61.5038 98.6V50.6C61.5038 47.4 62.0638 44.04 63.1838 40.52C64.3038 37 65.8238 33.56 67.7438 30.2C69.7438 26.84 71.9838 23.8 74.4638 21.08C76.9438 18.36 79.5838 16.2 82.3838 14.6C85.1038 13 87.7038 12.16 90.1838 12.08C92.7438 11.92 94.9838 12.36 96.9038 13.4L107.224 19.4ZM138.728 35V83L159.488 71V23L169.808 17V113L159.488 119V71C159.488 73.08 159.008 75.32 158.048 77.72C157.088 80.12 155.808 82.36 154.208 84.44C152.608 86.44 150.888 87.96 149.048 89L128.288 101V53C128.288 50.84 128.768 48.6 129.728 46.28C130.688 43.88 131.968 41.68 133.568 39.68C135.168 37.6 136.888 36.04 138.728 35ZM159.488 71V119L149.048 113V65L159.488 71ZM169.808 17L159.488 23L149.048 17L159.488 11L169.808 17ZM159.488 23V71L149.048 65V17L159.488 23ZM159.488 71L138.728 83L128.288 77L149.048 65L159.488 71ZM138.728 35C136.888 36.04 135.168 37.6 133.568 39.68C131.968 41.68 130.688 43.88 129.728 46.28C128.768 48.6 128.288 50.84 128.288 53V101L117.848 95V47C117.848 44.84 118.328 42.6 119.288 40.28C120.248 37.88 121.528 35.68 123.128 33.68C124.728 31.6 126.448 30.04 128.288 29L138.728 35ZM206.405 52.5C206.405 50.52 206.845 48.4667 207.725 46.34C208.605 44.14 209.779 42.1233 211.245 40.29C212.712 38.3833 214.289 36.9533 215.975 36L249.305 16.75V27.75L215.975 47V71.2L249.305 51.95V62.95L215.975 82.2V106.4L249.305 87.15V98.15L215.975 117.4C213.409 118.867 211.172 119.05 209.265 117.95C207.359 116.85 206.405 114.833 206.405 111.9V52.5ZM249.305 87.15L215.975 106.4L206.405 100.9L239.735 81.65L249.305 87.15ZM249.305 51.95L215.975 71.2L206.405 65.7L239.735 46.45L249.305 51.95ZM249.305 16.75L215.975 36C214.289 36.9533 212.712 38.3833 211.245 40.29C209.779 42.1233 208.605 44.14 207.725 46.34C206.845 48.4667 206.405 50.52 206.405 52.5V111.9C206.405 114.833 207.359 116.85 209.265 117.95L199.695 112.45C197.789 111.35 196.835 109.333 196.835 106.4V47C196.835 45.02 197.275 42.9667 198.155 40.84C199.035 38.64 200.209 36.6233 201.675 34.79C203.142 32.8833 204.719 31.4533 206.405 30.5L239.735 11.25L249.305 16.75ZM296.218 77.25L272.458 91V113L262.888 118.5V37.1L296.218 17.85C298.711 16.3833 300.911 16.2 302.818 17.3C304.798 18.4 305.788 20.4167 305.788 23.35V49.75C305.788 51.6567 305.311 53.71 304.358 55.91C303.478 58.11 302.305 60.1633 300.838 62.07C299.445 63.9033 297.905 65.2967 296.218 66.25C298.711 64.7833 300.911 64.6 302.818 65.7C304.798 66.8 305.788 68.8167 305.788 71.75V93.75L296.218 99.25V77.25ZM296.218 66.25V28.85L272.458 42.6V80L296.218 66.25ZM296.218 77.25V99.25L286.648 93.75V71.75L296.218 77.25ZM302.928 65.7C300.948 64.6 298.711 64.7833 296.218 66.25L286.648 60.75C289.215 59.2833 291.451 59.1 293.358 60.2L302.928 65.7ZM296.218 28.85V66.25L286.648 60.75V23.35L296.218 28.85ZM296.218 66.25L272.458 80L262.888 74.5L286.648 60.75L296.218 66.25ZM302.928 17.3C300.948 16.2 298.711 16.3833 296.218 17.85L262.888 37.1L253.318 31.6L286.648 12.35C289.215 10.8833 291.451 10.7 293.358 11.8L302.928 17.3ZM262.888 37.1V118.5L253.318 113V31.6L262.888 37.1ZM352.7 77.25L328.94 91V113L319.37 118.5V37.1L352.7 17.85C355.194 16.3833 357.394 16.2 359.3 17.3C361.28 18.4 362.27 20.4167 362.27 23.35V49.75C362.27 51.6567 361.794 53.71 360.84 55.91C359.96 58.11 358.787 60.1633 357.32 62.07C355.927 63.9033 354.387 65.2967 352.7 66.25C355.194 64.7833 357.394 64.6 359.3 65.7C361.28 66.8 362.27 68.8167 362.27 71.75V93.75L352.7 99.25V77.25ZM352.7 66.25V28.85L328.94 42.6V80L352.7 66.25ZM352.7 77.25V99.25L343.13 93.75V71.75L352.7 77.25ZM359.41 65.7C357.43 64.6 355.194 64.7833 352.7 66.25L343.13 60.75C345.697 59.2833 347.934 59.1 349.84 60.2L359.41 65.7ZM352.7 28.85V66.25L343.13 60.75V23.35L352.7 28.85ZM352.7 66.25L328.94 80L319.37 74.5L343.13 60.75L352.7 66.25ZM359.41 17.3C357.43 16.2 355.194 16.3833 352.7 17.85L319.37 37.1L309.8 31.6L343.13 12.35C345.697 10.8833 347.934 10.7 349.84 11.8L359.41 17.3ZM319.37 37.1V118.5L309.8 113V31.6L319.37 37.1ZM385.423 31.6L409.183 17.85C411.676 16.3833 413.876 16.2 415.783 17.3C417.763 18.4 418.753 20.4167 418.753 23.35V87.15C418.753 89.0567 418.276 91.11 417.323 93.31C416.443 95.51 415.269 97.5633 413.803 99.47C412.409 101.303 410.869 102.697 409.183 103.65L385.423 117.4C382.856 118.867 380.619 119.05 378.713 117.95C376.806 116.85 375.853 114.833 375.853 111.9V48.1C375.853 46.12 376.293 44.0667 377.173 41.94C378.053 39.74 379.226 37.7233 380.693 35.89C382.159 33.9833 383.736 32.5533 385.423 31.6ZM385.423 106.4L409.183 92.65V28.85L385.423 42.6V106.4ZM409.183 28.85V92.65L399.613 87.15V23.35L409.183 28.85ZM409.183 92.65L385.423 106.4L375.853 100.9L399.613 87.15L409.183 92.65ZM415.893 17.3C413.913 16.2 411.676 16.3833 409.183 17.85L385.423 31.6C383.736 32.5533 382.159 33.9833 380.693 35.89C379.226 37.7233 378.053 39.74 377.173 41.94C376.293 44.0667 375.853 46.12 375.853 48.1V111.9C375.853 114.833 376.806 116.85 378.713 117.95L369.143 112.45C367.236 111.35 366.283 109.333 366.283 106.4V42.6C366.283 40.62 366.723 38.5667 367.603 36.44C368.483 34.24 369.656 32.2233 371.123 30.39C372.589 28.4833 374.166 27.0533 375.853 26.1L399.613 12.35C402.179 10.8833 404.416 10.7 406.323 11.8L415.893 17.3ZM465.665 77.25L441.905 91V113L432.335 118.5V37.1L465.665 17.85C468.158 16.3833 470.358 16.2 472.265 17.3C474.245 18.4 475.235 20.4167 475.235 23.35V49.75C475.235 51.6567 474.758 53.71 473.805 55.91C472.925 58.11 471.752 60.1633 470.285 62.07C468.892 63.9033 467.352 65.2967 465.665 66.25C468.158 64.7833 470.358 64.6 472.265 65.7C474.245 66.8 475.235 68.8167 475.235 71.75V93.75L465.665 99.25V77.25ZM465.665 66.25V28.85L441.905 42.6V80L465.665 66.25ZM465.665 77.25V99.25L456.095 93.75V71.75L465.665 77.25ZM472.375 65.7C470.395 64.6 468.158 64.7833 465.665 66.25L456.095 60.75C458.662 59.2833 460.898 59.1 462.805 60.2L472.375 65.7ZM465.665 28.85V66.25L456.095 60.75V23.35L465.665 28.85ZM465.665 66.25L441.905 80L432.335 74.5L456.095 60.75L465.665 66.25ZM472.375 17.3C470.395 16.2 468.158 16.3833 465.665 17.85L432.335 37.1L422.765 31.6L456.095 12.35C458.662 10.8833 460.898 10.7 462.805 11.8L472.375 17.3ZM432.335 37.1V118.5L422.765 113V31.6L432.335 37.1Z" fill="white"/>
<path d="M26.04 35H27.04V33.2861L25.5479 34.1294L26.04 35ZM26.04 83H25.04V84.7331L26.5404 83.8658L26.04 83ZM46.8 71L47.3004 71.8658L47.8 71.577V71H46.8ZM46.8 23L46.2974 22.1355L45.8 22.4247V23H46.8ZM57.12 17H58.12V15.2619L56.6174 16.1355L57.12 17ZM57.12 113L57.6226 113.865L58.12 113.575V113H57.12ZM46.8 119H45.8V120.738L47.3026 119.865L46.8 119ZM41.52 84.44L42.3009 85.0647L42.3068 85.0573L42.3126 85.0497L41.52 84.44ZM36.36 89L35.8679 88.1294L35.8596 88.1342L36.36 89ZM15.6 101H14.6V102.733L16.1004 101.866L15.6 101ZM17.04 46.28L17.9641 46.6624L17.9685 46.6514L17.04 46.28ZM20.88 39.68L21.6609 40.3047L21.6668 40.2973L21.6726 40.2897L20.88 39.68ZM46.8 71H47.8V70.4213L47.2983 70.133L46.8 71ZM46.8 119L46.3017 119.867L47.8 120.728V119H46.8ZM36.36 113H35.36V113.579L35.8617 113.867L36.36 113ZM36.36 65L36.8583 64.133L35.36 63.2719V65H36.36ZM57.12 17L57.6226 17.8645L59.1096 17L57.6226 16.1355L57.12 17ZM46.8 23L46.3017 23.867L46.8029 24.155L47.3026 23.8645L46.8 23ZM36.36 17L35.8617 16.133L34.3531 17L35.8617 17.867L36.36 17ZM46.8 11L47.3026 10.1355L46.8029 9.84495L46.3017 10.133L46.8 11ZM46.8 23H47.8V22.4213L47.2983 22.133L46.8 23ZM46.8 71L46.3017 71.867L47.8 72.7281V71H46.8ZM36.36 65H35.36V65.5787L35.8617 65.867L36.36 65ZM36.36 17L36.8583 16.133L35.36 15.2719V17H36.36ZM46.8 71L47.3004 71.8658L48.8025 70.9975L47.2983 70.133L46.8 71ZM26.04 83L25.5417 83.867L26.0414 84.1542L26.5404 83.8658L26.04 83ZM15.6 77L15.0996 76.1342L13.5975 77.0025L15.1017 77.867L15.6 77ZM36.36 65L36.8583 64.133L36.3586 63.8458L35.8596 64.1342L36.36 65ZM26.04 35L26.5321 35.8706L28.0595 35.0072L26.5383 34.133L26.04 35ZM20.88 39.68L21.6609 40.3047L21.6668 40.2973L21.6726 40.2897L20.88 39.68ZM17.04 46.28L17.9641 46.6624L17.9685 46.6514L17.04 46.28ZM15.6 101L15.1017 101.867L16.6 102.728V101H15.6ZM5.16 95H4.16V95.5787L4.66172 95.867L5.16 95ZM6.6 40.28L7.52408 40.6624L7.52848 40.6514L6.6 40.28ZM10.44 33.68L11.2209 34.3047L11.2268 34.2973L11.2326 34.2897L10.44 33.68ZM15.6 29L16.0983 28.133L15.6041 27.849L15.1079 28.1294L15.6 29ZM26.04 35H25.04V83H26.04H27.04V35H26.04ZM26.04 83L26.5404 83.8658L47.3004 71.8658L46.8 71L46.2996 70.1342L25.5396 82.1342L26.04 83ZM46.8 71H47.8V23H46.8H45.8V71H46.8ZM46.8 23L47.3026 23.8645L57.6226 17.8645L57.12 17L56.6174 16.1355L46.2974 22.1355L46.8 23ZM57.12 17H56.12V113H57.12H58.12V17H57.12ZM57.12 113L56.6174 112.135L46.2974 118.135L46.8 119L47.3026 119.865L57.6226 113.865L57.12 113ZM46.8 119H47.8V71H46.8H45.8V119H46.8ZM46.8 71H45.8C45.8 72.926 45.3554 75.039 44.4315 77.3486L45.36 77.72L46.2885 78.0914C47.2846 75.601 47.8 73.234 47.8 71H46.8ZM45.36 77.72L44.4315 77.3486C43.5062 79.662 42.2722 81.822 40.7274 83.8303L41.52 84.44L42.3126 85.0497C43.9678 82.898 45.2938 80.578 46.2885 78.0914L45.36 77.72ZM41.52 84.44L40.7391 83.8153C39.2024 85.7362 37.5761 87.164 35.8679 88.1294L36.36 89L36.8521 89.8706C38.8239 88.756 40.6376 87.1438 42.3009 85.0647L41.52 84.44ZM36.36 89L35.8596 88.1342L15.0996 100.134L15.6 101L16.1004 101.866L36.8604 89.8658L36.36 89ZM15.6 101H16.6V53H15.6H14.6V101H15.6ZM15.6 53H16.6C16.6 50.9907 17.0461 48.8806 17.964 46.6623L17.04 46.28L16.116 45.8976C15.1139 48.3194 14.6 50.6893 14.6 53H15.6ZM17.04 46.28L17.9685 46.6514C18.8923 44.3418 20.1228 42.2273 21.6609 40.3047L20.88 39.68L20.0991 39.0553C18.4372 41.1327 17.1077 43.4182 16.1115 45.9086L17.04 46.28ZM20.88 39.68L21.6726 40.2897C23.2101 38.2911 24.8332 36.8308 26.5321 35.8706L26.04 35L25.5479 34.1294C23.5668 35.2492 21.75 36.9089 20.0874 39.0703L20.88 39.68ZM46.8 71H45.8V119H46.8H47.8V71H46.8ZM46.8 119L47.2983 118.133L36.8583 112.133L36.36 113L35.8617 113.867L46.3017 119.867L46.8 119ZM36.36 113H37.36V65H36.36H35.36V113H36.36ZM36.36 65L35.8617 65.867L46.3017 71.867L46.8 71L47.2983 70.133L36.8583 64.133L36.36 65ZM57.12 17L56.6174 16.1355L46.2974 22.1355L46.8 23L47.3026 23.8645L57.6226 17.8645L57.12 17ZM46.8 23L47.2983 22.133L36.8583 16.133L36.36 17L35.8617 17.867L46.3017 23.867L46.8 23ZM36.36 17L36.8583 17.867L47.2983 11.867L46.8 11L46.3017 10.133L35.8617 16.133L36.36 17ZM46.8 11L46.2974 11.8645L56.6174 17.8645L57.12 17L57.6226 16.1355L47.3026 10.1355L46.8 11ZM46.8 23H45.8V71H46.8H47.8V23H46.8ZM46.8 71L47.2983 70.133L36.8583 64.133L36.36 65L35.8617 65.867L46.3017 71.867L46.8 71ZM36.36 65H37.36V17H36.36H35.36V65H36.36ZM36.36 17L35.8617 17.867L46.3017 23.867L46.8 23L47.2983 22.133L36.8583 16.133L36.36 17ZM46.8 71L46.2996 70.1342L25.5396 82.1342L26.04 83L26.5404 83.8658L47.3004 71.8658L46.8 71ZM26.04 83L26.5383 82.133L16.0983 76.133L15.6 77L15.1017 77.867L25.5417 83.867L26.04 83ZM15.6 77L16.1004 77.8658L36.8604 65.8658L36.36 65L35.8596 64.1342L15.0996 76.1342L15.6 77ZM36.36 65L35.8617 65.867L46.3017 71.867L46.8 71L47.2983 70.133L36.8583 64.133L36.36 65ZM26.04 35L25.5479 34.1294C23.5668 35.2492 21.75 36.9089 20.0874 39.0703L20.88 39.68L21.6726 40.2897C23.2101 38.2911 24.8332 36.8308 26.5321 35.8706L26.04 35ZM20.88 39.68L20.0991 39.0553C18.4372 41.1327 17.1077 43.4182 16.1115 45.9086L17.04 46.28L17.9685 46.6514C18.8923 44.3418 20.1228 42.2273 21.6609 40.3047L20.88 39.68ZM17.04 46.28L16.116 45.8976C15.1139 48.3194 14.6 50.6893 14.6 53H15.6H16.6C16.6 50.9907 17.0461 48.8806 17.964 46.6623L17.04 46.28ZM15.6 53H14.6V101H15.6H16.6V53H15.6ZM15.6 101L16.0983 100.133L5.65828 94.133L5.16 95L4.66172 95.867L15.1017 101.867L15.6 101ZM5.16 95H6.16V47H5.16H4.16V95H5.16ZM5.16 47H6.16C6.16 44.9907 6.60613 42.8806 7.52402 40.6623L6.6 40.28L5.67598 39.8976C4.67387 42.3194 4.16 44.6893 4.16 47H5.16ZM6.6 40.28L7.52848 40.6514C8.45233 38.3418 9.68282 36.2273 11.2209 34.3047L10.44 33.68L9.65913 33.0553C7.99718 35.1327 6.66767 37.4182 5.67152 39.9086L6.6 40.28ZM10.44 33.68L11.2326 34.2897C12.7701 32.2911 14.3932 30.8308 16.0921 29.8706L15.6 29L15.1079 28.1294C13.1268 29.2492 11.3099 30.9089 9.64738 33.0703L10.44 33.68ZM15.6 29L15.1017 29.867L25.5417 35.867L26.04 35L26.5383 34.133L16.0983 28.133L15.6 29ZM92.7038 20.6L92.1975 19.7376L92.1967 19.7381L92.7038 20.6ZM102.904 18.08L102.752 19.0684L102.766 19.0705L102.78 19.0723L102.904 18.08ZM110.584 22.52L109.784 23.12L109.788 23.1261L109.793 23.1322L110.584 22.52ZM107.224 101L108.092 101.496L107.224 101ZM100.624 110.12L101.363 110.794L100.624 110.12ZM92.7038 116.6L93.1958 117.471L93.1999 117.468L92.7038 116.6ZM82.3838 119.12L82.2566 120.112L82.2597 120.112L82.3838 119.12ZM74.8238 114.68L75.6237 114.08L75.6192 114.074L75.6145 114.068L74.8238 114.68ZM73.6237 46.52L74.5767 46.8232L73.6237 46.52ZM84.7838 27.08L84.0555 26.3946L84.0501 26.4004L84.0448 26.4062L84.7838 27.08ZM100.024 32L99.524 32.8662L100.024 32ZM92.7038 32.6L93.1958 33.4706L93.1999 33.4682L92.7038 32.6ZM87.5438 37.28L86.7511 36.6703L86.7476 36.6749L87.5438 37.28ZM83.8238 43.88L84.7478 44.2624L84.7522 44.2514L83.8238 43.88ZM85.5038 105.2L86.0035 104.334L85.5038 105.2ZM92.7038 104.6L92.2117 103.729L92.2042 103.734L92.1967 103.738L92.7038 104.6ZM97.8638 100.04L98.6446 100.665L98.6506 100.657L98.6564 100.65L97.8638 100.04ZM100.024 32L100.523 31.1338L100.522 31.133L100.024 32ZM97.8638 100.04L98.6446 100.665L98.6506 100.657L98.6564 100.65L97.8638 100.04ZM92.7038 104.6L92.2117 103.729L92.2042 103.734L92.1967 103.738L92.7038 104.6ZM85.5038 105.2L86.0035 104.334L86.002 104.333L85.5038 105.2ZM75.0638 99.2L75.562 98.333L74.564 100.066L75.0638 99.2ZM82.3838 98.6L82.8799 99.4682L82.8862 99.4646L82.8925 99.4609L82.3838 98.6ZM87.4238 94.04L88.2046 94.6647L88.2106 94.6573L88.2164 94.6497L87.4238 94.04ZM89.5837 26L90.082 25.133L89.084 26.8662L89.5837 26ZM107.224 19.4L106.747 20.2793L107.726 18.5355L107.224 19.4ZM100.624 18.08L100.656 19.0795L100.672 19.079L100.688 19.0779L100.624 18.08ZM92.7038 20.6L92.2076 19.7317L92.1967 19.7381L92.7038 20.6ZM84.7838 27.08L84.0555 26.3946L84.0501 26.4004L84.0448 26.4062L84.7838 27.08ZM73.6237 46.52L74.5767 46.8232L73.6237 46.52ZM73.6237 112.76L72.7293 113.207L73.6237 112.76ZM78.1838 117.8L77.6855 118.667L78.6876 116.936L78.1838 117.8ZM67.7438 111.8L67.2238 112.654L67.2346 112.661L67.2455 112.667L67.7438 111.8ZM63.1838 106.76L62.2893 107.207L62.2956 107.22L62.3023 107.232L63.1838 106.76ZM63.1838 40.52L62.2308 40.2168L63.1838 40.52ZM67.7438 30.2L66.8845 29.6885L66.8799 29.6961L66.8755 29.7039L67.7438 30.2ZM82.3838 14.6L82.8799 15.4683L82.8908 15.4619L82.3838 14.6ZM90.1838 12.08L90.216 13.0795L90.2311 13.079L90.2461 13.078L90.1838 12.08ZM96.9038 13.4L97.4064 12.5355L97.3933 12.5279L97.38 12.5207L96.9038 13.4ZM92.7038 20.6L93.21 21.4624C96.7612 19.378 99.9278 18.6339 102.752 19.0684L102.904 18.08L103.056 17.0916C99.6397 16.5661 96.0063 17.502 92.1975 19.7376L92.7038 20.6ZM102.904 18.08L102.78 19.0723C105.713 19.4389 108.028 20.7789 109.784 23.12L110.584 22.52L111.384 21.92C109.3 19.1411 106.495 17.5211 103.028 17.0877L102.904 18.08ZM110.584 22.52L109.793 23.1322C111.537 25.3843 112.464 28.5042 112.464 32.6H113.464H114.464C114.464 28.2157 113.471 24.6157 111.374 21.9078L110.584 22.52ZM113.464 32.6H112.464V80.6H113.464H114.464V32.6H113.464ZM113.464 80.6H112.464C112.464 83.6826 111.924 86.94 110.831 90.3768L111.784 90.68L112.737 90.9832C113.883 87.38 114.464 83.9174 114.464 80.6H113.464ZM111.784 90.68L110.831 90.3768C109.733 93.8266 108.242 97.2021 106.356 100.504L107.224 101L108.092 101.496C110.045 98.0779 111.594 94.5734 112.737 90.9832L111.784 90.68ZM107.224 101L106.356 100.504C104.47 103.803 102.313 106.783 99.8848 109.446L100.624 110.12L101.363 110.794C103.895 108.017 106.137 104.917 108.092 101.496L107.224 101ZM100.624 110.12L99.8848 109.446C97.4653 112.1 94.9052 114.19 92.2076 115.732L92.7038 116.6L93.1999 117.468C96.1023 115.81 98.8222 113.58 101.363 110.794L100.624 110.12ZM92.7038 116.6L92.2117 115.729C88.6607 117.737 85.4369 118.494 82.5078 118.128L82.3838 119.12L82.2597 120.112C85.7306 120.546 89.3868 119.623 93.1958 117.471L92.7038 116.6ZM82.3838 119.12L82.5109 118.128C79.6641 117.763 77.3848 116.428 75.6237 114.08L74.8238 114.68L74.0238 115.28C76.1027 118.052 78.8634 119.677 82.2566 120.112L82.3838 119.12ZM74.8238 114.68L75.6145 114.068C73.8709 111.816 72.9437 108.696 72.9437 104.6H71.9437H70.9437C70.9437 108.984 71.9366 112.584 74.033 115.292L74.8238 114.68ZM71.9437 104.6H72.9437V56.6H71.9437H70.9437V104.6H71.9437ZM71.9437 56.6H72.9437C72.9437 53.5174 73.4832 50.26 74.5767 46.8232L73.6237 46.52L72.6708 46.2168C71.5243 49.82 70.9437 53.2826 70.9437 56.6H71.9437ZM73.6237 46.52L74.5767 46.8232C75.6743 43.3734 77.1653 39.9979 79.052 36.6961L78.1838 36.2L77.3155 35.7039C75.3622 39.1221 73.8132 42.6266 72.6708 46.2168L73.6237 46.52ZM78.1838 36.2L79.052 36.6961C80.9374 33.3966 83.0947 30.4168 85.5227 27.7538L84.7838 27.08L84.0448 26.4062C81.5128 29.1832 79.2701 32.2833 77.3155 35.7039L78.1838 36.2ZM84.7838 27.08L85.512 27.7654C88.0185 25.1021 90.5859 23.006 93.2108 21.4619L92.7038 20.6L92.1967 19.7381C89.3816 21.394 86.669 23.6179 84.0555 26.3946L84.7838 27.08ZM103.144 38.6H104.144C104.144 35.178 103.015 32.5711 100.523 31.1338L100.024 32L99.524 32.8662C101.193 33.8289 102.144 35.622 102.144 38.6H103.144ZM100.024 32L100.523 31.1338C98.0321 29.6965 95.1964 30.0239 92.2076 31.7318L92.7038 32.6L93.1999 33.4682C95.8111 31.9761 97.8554 31.9035 99.524 32.8662L100.024 32ZM92.7038 32.6L92.2117 31.7294C90.2305 32.8492 88.4137 34.5089 86.7511 36.6703L87.5438 37.28L88.3364 37.8897C89.8738 35.8911 91.497 34.4308 93.1958 33.4706L92.7038 32.6ZM87.5438 37.28L86.7476 36.6749C85.1716 38.7486 83.8877 41.0275 82.8953 43.5086L83.8238 43.88L84.7522 44.2514C85.6798 41.9324 86.8759 39.8114 88.3399 37.8851L87.5438 37.28ZM83.8238 43.88L82.8997 43.4976C81.8976 45.9194 81.3838 48.2893 81.3838 50.6H82.3838H83.3838C83.3838 48.5907 83.8299 46.4806 84.7478 44.2623L83.8238 43.88ZM82.3838 50.6H81.3838V98.6H82.3838H83.3838V50.6H82.3838ZM82.3838 98.6H81.3838C81.3838 102.022 82.5128 104.629 85.004 106.066L85.5038 105.2L86.0035 104.334C84.3347 103.371 83.3838 101.578 83.3838 98.6H82.3838ZM85.5038 105.2L85.004 106.066C87.4941 107.503 90.2924 107.179 93.2108 105.462L92.7038 104.6L92.1967 103.738C89.6751 105.221 87.6734 105.297 86.0035 104.334L85.5038 105.2ZM92.7038 104.6L93.1958 105.471C95.1677 104.356 96.9814 102.744 98.6446 100.665L97.8638 100.04L97.0829 99.4153C95.5462 101.336 93.9198 102.764 92.2117 103.729L92.7038 104.6ZM97.8638 100.04L98.6564 100.65C100.312 98.498 101.638 96.178 102.632 93.6914L101.704 93.32L100.775 92.9486C99.8499 95.262 98.616 97.422 97.0711 99.4303L97.8638 100.04ZM101.704 93.32L102.632 93.6914C103.628 91.201 104.144 88.834 104.144 86.6H103.144H102.144C102.144 88.526 101.699 90.639 100.775 92.9486L101.704 93.32ZM103.144 86.6H104.144V38.6H103.144H102.144V86.6H103.144ZM100.024 32L99.524 32.8662C101.193 33.8289 102.144 35.622 102.144 38.6H103.144H104.144C104.144 35.178 103.015 32.5711 100.523 31.1338L100.024 32ZM103.144 38.6H102.144V86.6H103.144H104.144V38.6H103.144ZM103.144 86.6H102.144C102.144 88.526 101.699 90.639 100.775 92.9486L101.704 93.32L102.632 93.6914C103.628 91.201 104.144 88.834 104.144 86.6H103.144ZM101.704 93.32L100.775 92.9486C99.8499 95.262 98.616 97.422 97.0711 99.4303L97.8638 100.04L98.6564 100.65C100.312 98.498 101.638 96.178 102.632 93.6914L101.704 93.32ZM97.8638 100.04L97.0829 99.4153C95.5462 101.336 93.9198 102.764 92.2117 103.729L92.7038 104.6L93.1958 105.471C95.1677 104.356 96.9814 102.744 98.6446 100.665L97.8638 100.04ZM92.7038 104.6L92.1967 103.738C89.6751 105.221 87.6734 105.297 86.0035 104.334L85.5038 105.2L85.004 106.066C87.4941 107.503 90.2924 107.179 93.2108 105.462L92.7038 104.6ZM85.5038 105.2L86.002 104.333L75.562 98.333L75.0638 99.2L74.5655 100.067L85.0055 106.067L85.5038 105.2ZM75.0638 99.2L74.564 100.066C77.0554 101.504 79.8911 101.176 82.8799 99.4682L82.3838 98.6L81.8876 97.7318C79.2764 99.2239 77.2321 99.2965 75.5635 98.3338L75.0638 99.2ZM82.3838 98.6L82.8925 99.4609C84.7794 98.3459 86.5473 96.7363 88.2046 94.6647L87.4238 94.04L86.6429 93.4153C85.1002 95.3437 83.5081 96.7741 81.875 97.7391L82.3838 98.6ZM87.4238 94.04L88.2164 94.6497C89.8715 92.498 91.1976 90.178 92.1922 87.6914L91.2637 87.32L90.3353 86.9486C89.4099 89.262 88.176 91.422 86.6311 93.4303L87.4238 94.04ZM91.2637 87.32L92.1922 87.6914C93.1884 85.201 93.7038 82.834 93.7038 80.6H92.7038H91.7038C91.7038 82.526 91.2591 84.639 90.3353 86.9486L91.2637 87.32ZM92.7038 80.6H93.7038V32.6H92.7038H91.7038V80.6H92.7038ZM92.7038 32.6H93.7038C93.7038 29.178 92.5747 26.5711 90.0835 25.1338L89.5837 26L89.084 26.8662C90.7528 27.8289 91.7038 29.622 91.7038 32.6H92.7038ZM89.5837 26L89.0855 26.867L99.5255 32.867L100.024 32L100.522 31.133L90.082 25.133L89.5837 26ZM107.224 19.4L107.7 18.5207C105.593 17.3792 103.201 16.9117 100.559 17.0821L100.624 18.08L100.688 19.0779C103.007 18.9283 105.015 19.3408 106.747 20.2793L107.224 19.4ZM100.624 18.08L100.592 17.0805C97.907 17.1671 95.1081 18.0743 92.2076 19.7318L92.7038 20.6L93.1999 21.4682C95.8994 19.9257 98.3805 19.1529 100.656 19.0795L100.624 18.08ZM92.7038 20.6L92.1967 19.7381C89.3816 21.394 86.669 23.6179 84.0555 26.3946L84.7838 27.08L85.512 27.7654C88.0185 25.1021 90.5859 23.006 93.2108 21.4619L92.7038 20.6ZM84.7838 27.08L84.0448 26.4062C81.5128 29.1832 79.2701 32.2833 77.3155 35.7039L78.1838 36.2L79.052 36.6961C80.9374 33.3966 83.0947 30.4168 85.5227 27.7538L84.7838 27.08ZM78.1838 36.2L77.3155 35.7039C75.3622 39.1221 73.8132 42.6266 72.6708 46.2168L73.6237 46.52L74.5767 46.8232C75.6743 43.3734 77.1653 39.9979 79.052 36.6961L78.1838 36.2ZM73.6237 46.52L72.6708 46.2168C71.5243 49.82 70.9437 53.2826 70.9437 56.6H71.9437H72.9437C72.9437 53.5174 73.4832 50.26 74.5767 46.8232L73.6237 46.52ZM71.9437 56.6H70.9437V104.6H71.9437H72.9437V56.6H71.9437ZM71.9437 104.6H70.9437C70.9437 107.913 71.5233 110.795 72.7293 113.207L73.6237 112.76L74.5182 112.313C73.4842 110.245 72.9437 107.687 72.9437 104.6H71.9437ZM73.6237 112.76L72.7293 113.207C73.9249 115.598 75.5713 117.434 77.6799 118.664L78.1838 117.8L78.6876 116.936C76.9562 115.926 75.5626 114.402 74.5182 112.313L73.6237 112.76ZM78.1838 117.8L78.682 116.933L68.242 110.933L67.7438 111.8L67.2455 112.667L77.6855 118.667L78.1838 117.8ZM67.7438 111.8L68.2637 110.946C66.6016 109.934 65.1962 108.399 64.0652 106.288L63.1838 106.76L62.3023 107.232C63.5713 109.601 65.2059 111.426 67.2238 112.654L67.7438 111.8ZM63.1838 106.76L64.0782 106.313C63.0442 104.245 62.5037 101.687 62.5037 98.6H61.5037H60.5037C60.5037 101.913 61.0833 104.795 62.2893 107.207L63.1838 106.76ZM61.5037 98.6H62.5037V50.6H61.5037H60.5037V98.6H61.5037ZM61.5037 50.6H62.5037C62.5037 47.5174 63.0432 44.26 64.1367 40.8232L63.1838 40.52L62.2308 40.2168C61.0843 43.82 60.5037 47.2826 60.5037 50.6H61.5037ZM63.1838 40.52L64.1367 40.8232C65.2343 37.3734 66.7253 33.9979 68.612 30.6961L67.7438 30.2L66.8755 29.7039C64.9222 33.1221 63.3732 36.6266 62.2308 40.2168L63.1838 40.52ZM67.7438 30.2L68.603 30.7115C70.5706 27.4059 72.7709 24.4209 75.2027 21.7537L74.4638 21.08L73.7248 20.4062C71.1966 23.1791 68.9169 26.2741 66.8845 29.6885L67.7438 30.2ZM74.4638 21.08L75.2027 21.7537C77.6222 19.1001 80.1823 17.0097 82.8799 15.4682L82.3838 14.6L81.8876 13.7318C78.9852 15.3903 76.2653 17.6199 73.7248 20.4062L74.4638 21.08ZM82.3838 14.6L82.8908 15.4619C85.5049 13.9242 87.9427 13.1528 90.216 13.0795L90.1838 12.08L90.1515 11.0805C87.4648 11.1672 84.7027 12.0758 81.8767 13.7381L82.3838 14.6ZM90.1838 12.08L90.2461 13.078C92.6522 12.9277 94.6993 13.3432 96.4275 14.2793L96.9038 13.4L97.38 12.5207C95.2682 11.3768 92.8353 10.9123 90.1214 11.0819L90.1838 12.08ZM96.9038 13.4L96.4011 14.2645L106.721 20.2645L107.224 19.4L107.726 18.5355L97.4064 12.5355L96.9038 13.4ZM138.728 35H139.728V33.2861L138.235 34.1294L138.728 35ZM138.728 83H137.728V84.7331L139.228 83.8658L138.728 83ZM159.488 71L159.988 71.8658L160.488 71.577V71H159.488ZM159.488 23L158.985 22.1355L158.488 22.4247V23H159.488ZM169.807 17H170.807V15.2619L169.305 16.1355L169.807 17ZM169.807 113L170.31 113.865L170.807 113.575V113H169.807ZM159.488 119H158.488V120.738L159.99 119.865L159.488 119ZM154.208 84.44L154.988 85.0647L154.994 85.0573L155 85.0497L154.208 84.44ZM149.048 89L148.555 88.1294L148.547 88.1342L149.048 89ZM128.288 101H127.287V102.733L128.788 101.866L128.288 101ZM129.727 46.28L130.652 46.6624L130.656 46.6514L129.727 46.28ZM133.568 39.68L134.348 40.3047L134.354 40.2973L134.36 40.2897L133.568 39.68ZM159.488 71H160.488V70.4213L159.986 70.133L159.488 71ZM159.488 119L158.989 119.867L160.488 120.728V119H159.488ZM149.048 113H148.048V113.579L148.549 113.867L149.048 113ZM149.048 65L149.546 64.133L148.048 63.2719V65H149.048ZM169.807 17L170.31 17.8645L171.797 17L170.31 16.1355L169.807 17ZM159.488 23L158.989 23.867L159.49 24.155L159.99 23.8645L159.488 23ZM149.048 17L148.549 16.133L147.041 17L148.549 17.867L149.048 17ZM159.488 11L159.99 10.1355L159.49 9.84495L158.989 10.133L159.488 11ZM159.488 23H160.488V22.4213L159.986 22.133L159.488 23ZM159.488 71L158.989 71.867L160.488 72.7281V71H159.488ZM149.048 65H148.048V65.5787L148.549 65.867L149.048 65ZM149.048 17L149.546 16.133L148.048 15.2719V17H149.048ZM159.488 71L159.988 71.8658L161.49 70.9975L159.986 70.133L159.488 71ZM138.728 83L138.229 83.867L138.729 84.1542L139.228 83.8658L138.728 83ZM128.288 77L127.787 76.1342L126.285 77.0025L127.789 77.867L128.288 77ZM149.048 65L149.546 64.133L149.046 63.8458L148.547 64.1342L149.048 65ZM138.728 35L139.22 35.8706L140.747 35.0072L139.226 34.133L138.728 35ZM133.568 39.68L134.348 40.3047L134.354 40.2973L134.36 40.2897L133.568 39.68ZM129.727 46.28L130.652 46.6624L130.656 46.6514L129.727 46.28ZM128.288 101L127.789 101.867L129.288 102.728V101H128.288ZM117.848 95H116.848V95.5787L117.349 95.867L117.848 95ZM119.287 40.28L120.212 40.6624L120.216 40.6514L119.287 40.28ZM123.128 33.68L123.908 34.3047L123.914 34.2973L123.92 34.2897L123.128 33.68ZM128.288 29L128.786 28.133L128.292 27.849L127.795 28.1294L128.288 29ZM138.728 35H137.728V83H138.728H139.728V35H138.728ZM138.728 83L139.228 83.8658L159.988 71.8658L159.488 71L158.987 70.1342L138.227 82.1342L138.728 83ZM159.488 71H160.488V23H159.488H158.488V71H159.488ZM159.488 23L159.99 23.8645L170.31 17.8645L169.807 17L169.305 16.1355L158.985 22.1355L159.488 23ZM169.807 17H168.807V113H169.807H170.807V17H169.807ZM169.807 113L169.305 112.135L158.985 118.135L159.488 119L159.99 119.865L170.31 113.865L169.807 113ZM159.488 119H160.488V71H159.488H158.488V119H159.488ZM159.488 71H158.488C158.488 72.926 158.043 75.039 157.119 77.3486L158.048 77.72L158.976 78.0914C159.972 75.601 160.488 73.234 160.488 71H159.488ZM158.048 77.72L157.119 77.3486C156.194 79.662 154.96 81.822 153.415 83.8303L154.208 84.44L155 85.0497C156.655 82.898 157.981 80.578 158.976 78.0914L158.048 77.72ZM154.208 84.44L153.427 83.8153C151.89 85.7362 150.264 87.164 148.555 88.1294L149.048 89L149.54 89.8706C151.511 88.756 153.325 87.1438 154.988 85.0647L154.208 84.44ZM149.048 89L148.547 88.1342L127.787 100.134L128.288 101L128.788 101.866L149.548 89.8658L149.048 89ZM128.288 101H129.288V53H128.288H127.287V101H128.288ZM128.288 53H129.288C129.288 50.9907 129.734 48.8806 130.652 46.6623L129.727 46.28L128.803 45.8976C127.801 48.3194 127.287 50.6893 127.287 53H128.288ZM129.727 46.28L130.656 46.6514C131.58 44.3418 132.81 42.2273 134.348 40.3047L133.568 39.68L132.787 39.0553C131.125 41.1327 129.795 43.4182 128.799 45.9086L129.727 46.28ZM133.568 39.68L134.36 40.2897C135.898 38.2911 137.521 36.8308 139.22 35.8706L138.728 35L138.235 34.1294C136.254 35.2492 134.437 36.9089 132.775 39.0703L133.568 39.68ZM159.488 71H158.488V119H159.488H160.488V71H159.488ZM159.488 119L159.986 118.133L149.546 112.133L149.048 113L148.549 113.867L158.989 119.867L159.488 119ZM149.048 113H150.048V65H149.048H148.048V113H149.048ZM149.048 65L148.549 65.867L158.989 71.867L159.488 71L159.986 70.133L149.546 64.133L149.048 65ZM169.807 17L169.305 16.1355L158.985 22.1355L159.488 23L159.99 23.8645L170.31 17.8645L169.807 17ZM159.488 23L159.986 22.133L149.546 16.133L149.048 17L148.549 17.867L158.989 23.867L159.488 23ZM149.048 17L149.546 17.867L159.986 11.867L159.488 11L158.989 10.133L148.549 16.133L149.048 17ZM159.488 11L158.985 11.8645L169.305 17.8645L169.807 17L170.31 16.1355L159.99 10.1355L159.488 11ZM159.488 23H158.488V71H159.488H160.488V23H159.488ZM159.488 71L159.986 70.133L149.546 64.133L149.048 65L148.549 65.867L158.989 71.867L159.488 71ZM149.048 65H150.048V17H149.048H148.048V65H149.048ZM149.048 17L148.549 17.867L158.989 23.867L159.488 23L159.986 22.133L149.546 16.133L149.048 17ZM159.488 71L158.987 70.1342L138.227 82.1342L138.728 83L139.228 83.8658L159.988 71.8658L159.488 71ZM138.728 83L139.226 82.133L128.786 76.133L128.288 77L127.789 77.867L138.229 83.867L138.728 83ZM128.288 77L128.788 77.8658L149.548 65.8658L149.048 65L148.547 64.1342L127.787 76.1342L128.288 77ZM149.048 65L148.549 65.867L158.989 71.867L159.488 71L159.986 70.133L149.546 64.133L149.048 65ZM138.728 35L138.235 34.1294C136.254 35.2492 134.437 36.9089 132.775 39.0703L133.568 39.68L134.36 40.2897C135.898 38.2911 137.521 36.8308 139.22 35.8706L138.728 35ZM133.568 39.68L132.787 39.0553C131.125 41.1327 129.795 43.4182 128.799 45.9086L129.727 46.28L130.656 46.6514C131.58 44.3418 132.81 42.2273 134.348 40.3047L133.568 39.68ZM129.727 46.28L128.803 45.8976C127.801 48.3194 127.287 50.6893 127.287 53H128.288H129.288C129.288 50.9907 129.734 48.8806 130.652 46.6623L129.727 46.28ZM128.288 53H127.287V101H128.288H129.288V53H128.288ZM128.288 101L128.786 100.133L118.346 94.133L117.848 95L117.349 95.867L127.789 101.867L128.288 101ZM117.848 95H118.848V47H117.848H116.848V95H117.848ZM117.848 47H118.848C118.848 44.9907 119.294 42.8806 120.212 40.6623L119.287 40.28L118.363 39.8976C117.361 42.3194 116.848 44.6893 116.848 47H117.848ZM119.287 40.28L120.216 40.6514C121.14 38.3418 122.37 36.2273 123.908 34.3047L123.128 33.68L122.347 33.0553C120.685 35.1327 119.355 37.4182 118.359 39.9086L119.287 40.28ZM123.128 33.68L123.92 34.2897C125.458 32.2911 127.081 30.8308 128.78 29.8706L128.288 29L127.795 28.1294C125.814 29.2492 123.997 30.9089 122.335 33.0703L123.128 33.68ZM128.288 29L127.789 29.867L138.229 35.867L138.728 35L139.226 34.133L128.786 28.133L128.288 29ZM207.725 46.34L208.65 46.7224L208.654 46.7114L207.725 46.34ZM211.245 40.29L212.026 40.9147L212.032 40.9073L212.038 40.8997L211.245 40.29ZM215.975 36L216.468 36.8706L216.476 36.8659L215.975 36ZM249.305 16.75H250.305V15.0176L248.805 15.884L249.305 16.75ZM249.305 27.75L249.806 28.6159L250.305 28.3272V27.75H249.305ZM215.975 47L215.475 46.134L214.975 46.4228V47H215.975ZM215.975 71.2H214.975V72.9324L216.476 72.0659L215.975 71.2ZM249.305 51.95H250.305V50.2176L248.805 51.0841L249.305 51.95ZM249.305 62.95L249.806 63.8159L250.305 63.5272V62.95H249.305ZM215.975 82.2L215.475 81.3341L214.975 81.6228V82.2H215.975ZM215.975 106.4H214.975V108.132L216.476 107.266L215.975 106.4ZM249.305 87.15H250.305V85.4176L248.805 86.284L249.305 87.15ZM249.305 98.15L249.806 99.0159L250.305 98.7272V98.15H249.305ZM215.975 117.4L216.472 118.268L216.476 118.266L215.975 117.4ZM209.265 117.95L208.766 118.816L209.265 117.95ZM249.305 87.15L249.806 88.0159L251.309 87.1479L249.804 86.283L249.305 87.15ZM215.975 106.4L215.477 107.267L215.977 107.554L216.476 107.266L215.975 106.4ZM206.405 100.9L205.905 100.034L204.402 100.902L205.907 101.767L206.405 100.9ZM239.735 81.65L240.234 80.783L239.734 80.4959L239.235 80.784L239.735 81.65ZM249.305 51.95L249.806 52.8159L251.309 51.9479L249.804 51.083L249.305 51.95ZM215.975 71.2L215.477 72.067L215.977 72.3541L216.476 72.0659L215.975 71.2ZM206.405 65.7L205.905 64.8341L204.402 65.7021L205.907 66.567L206.405 65.7ZM239.735 46.45L240.234 45.583L239.734 45.2959L239.235 45.584L239.735 46.45ZM249.305 16.75L249.806 17.6159L251.309 16.7479L249.804 15.883L249.305 16.75ZM215.975 36L216.468 36.8706L216.476 36.8659L215.975 36ZM211.245 40.29L212.026 40.9147L212.032 40.9073L212.038 40.8997L211.245 40.29ZM207.725 46.34L208.65 46.7224L208.654 46.7114L207.725 46.34ZM209.265 117.95L208.767 118.817L209.765 117.084L209.265 117.95ZM199.695 112.45L199.196 113.316L199.197 113.317L199.695 112.45ZM198.155 40.84L199.08 41.2224L199.084 41.2114L198.155 40.84ZM201.675 34.79L202.456 35.4147L202.462 35.4073L202.468 35.3997L201.675 34.79ZM206.405 30.5L206.898 31.3706L206.906 31.3659L206.405 30.5ZM239.735 11.25L240.234 10.383L239.734 10.0959L239.235 10.384L239.735 11.25ZM206.405 52.5H207.405C207.405 50.6707 207.812 48.7472 208.649 46.7224L207.725 46.34L206.801 45.9576C205.879 48.1861 205.405 50.3693 205.405 52.5H206.405ZM207.725 46.34L208.654 46.7114C209.498 44.6018 210.622 42.6706 212.026 40.9147L211.245 40.29L210.465 39.6653C208.936 41.5761 207.713 43.6782 206.797 45.9686L207.725 46.34ZM211.245 40.29L212.038 40.8997C213.442 39.0744 214.922 37.7441 216.468 36.8706L215.975 36L215.483 35.1294C213.656 36.1626 211.982 37.6923 210.453 39.6803L211.245 40.29ZM215.975 36L216.476 36.8659L249.806 17.6159L249.305 16.75L248.805 15.884L215.475 35.134L215.975 36ZM249.305 16.75H248.305V27.75H249.305H250.305V16.75H249.305ZM249.305 27.75L248.805 26.884L215.475 46.134L215.975 47L216.476 47.8659L249.806 28.6159L249.305 27.75ZM215.975 47H214.975V71.2H215.975H216.975V47H215.975ZM215.975 71.2L216.476 72.0659L249.806 52.8159L249.305 51.95L248.805 51.0841L215.475 70.3341L215.975 71.2ZM249.305 51.95H248.305V62.95H249.305H250.305V51.95H249.305ZM249.305 62.95L248.805 62.084L215.475 81.3341L215.975 82.2L216.476 83.0659L249.806 63.8159L249.305 62.95ZM215.975 82.2H214.975V106.4H215.975H216.975V82.2H215.975ZM215.975 106.4L216.476 107.266L249.806 88.0159L249.305 87.15L248.805 86.284L215.475 105.534L215.975 106.4ZM249.305 87.15H248.305V98.15H249.305H250.305V87.15H249.305ZM249.305 98.15L248.805 97.284L215.475 116.534L215.975 117.4L216.476 118.266L249.806 99.0159L249.305 98.15ZM215.975 117.4L215.479 116.532C213.101 117.891 211.26 117.946 209.765 117.084L209.265 117.95L208.766 118.816C211.084 120.154 213.716 119.843 216.472 118.268L215.975 117.4ZM209.265 117.95L209.765 117.084C208.27 116.221 207.405 114.611 207.405 111.9H206.405H205.405C205.405 115.055 206.448 117.479 208.766 118.816L209.265 117.95ZM206.405 111.9H207.405V52.5H206.405H205.405V111.9H206.405ZM249.305 87.15L248.805 86.284L215.475 105.534L215.975 106.4L216.476 107.266L249.806 88.0159L249.305 87.15ZM215.975 106.4L216.474 105.533L206.904 100.033L206.405 100.9L205.907 101.767L215.477 107.267L215.975 106.4ZM206.405 100.9L206.906 101.766L240.236 82.5159L239.735 81.65L239.235 80.784L205.905 100.034L206.405 100.9ZM239.735 81.65L239.237 82.517L248.807 88.017L249.305 87.15L249.804 86.283L240.234 80.783L239.735 81.65ZM249.305 51.95L248.805 51.0841L215.475 70.3341L215.975 71.2L216.476 72.0659L249.806 52.8159L249.305 51.95ZM215.975 71.2L216.474 70.333L206.904 64.833L206.405 65.7L205.907 66.567L215.477 72.067L215.975 71.2ZM206.405 65.7L206.906 66.5659L240.236 47.3159L239.735 46.45L239.235 45.584L205.905 64.8341L206.405 65.7ZM239.735 46.45L239.237 47.317L248.807 52.817L249.305 51.95L249.804 51.083L240.234 45.583L239.735 46.45ZM249.305 16.75L248.805 15.884L215.475 35.134L215.975 36L216.476 36.8659L249.806 17.6159L249.305 16.75ZM215.975 36L215.483 35.1294C213.656 36.1626 211.982 37.6923 210.453 39.6803L211.245 40.29L212.038 40.8997C213.442 39.0744 214.922 37.7441 216.468 36.8706L215.975 36ZM211.245 40.29L210.465 39.6653C208.936 41.5761 207.713 43.6782 206.797 45.9686L207.725 46.34L208.654 46.7114C209.498 44.6018 210.622 42.6706 212.026 40.9147L211.245 40.29ZM207.725 46.34L206.801 45.9576C205.879 48.1861 205.405 50.3693 205.405 52.5H206.405H207.405C207.405 50.6707 207.812 48.7472 208.649 46.7224L207.725 46.34ZM206.405 52.5H205.405V111.9H206.405H207.405V52.5H206.405ZM206.405 111.9H205.405C205.405 115.055 206.448 117.479 208.766 118.816L209.265 117.95L209.765 117.084C208.27 116.221 207.405 114.611 207.405 111.9H206.405ZM209.265 117.95L209.764 117.083L200.194 111.583L199.695 112.45L199.197 113.317L208.767 118.817L209.265 117.95ZM199.695 112.45L200.195 111.584C198.7 110.721 197.835 109.111 197.835 106.4H196.835H195.835C195.835 109.555 196.878 111.979 199.196 113.316L199.695 112.45ZM196.835 106.4H197.835V47H196.835H195.835V106.4H196.835ZM196.835 47H197.835C197.835 45.1707 198.242 43.2472 199.079 41.2224L198.155 40.84L197.231 40.4576C196.309 42.6861 195.835 44.8693 195.835 47H196.835ZM198.155 40.84L199.084 41.2114C199.928 39.1018 201.052 37.1706 202.456 35.4147L201.675 34.79L200.895 34.1653C199.366 36.0761 198.143 38.1782 197.227 40.4686L198.155 40.84ZM201.675 34.79L202.468 35.3997C203.872 33.5744 205.352 32.2441 206.898 31.3706L206.405 30.5L205.913 29.6294C204.086 30.6626 202.412 32.1923 200.883 34.1803L201.675 34.79ZM206.405 30.5L206.906 31.3659L240.236 12.1159L239.735 11.25L239.235 10.384L205.905 29.634L206.405 30.5ZM239.735 11.25L239.237 12.117L248.807 17.617L249.305 16.75L249.804 15.883L240.234 10.383L239.735 11.25ZM296.218 77.25H297.218V75.5159L295.717 76.3845L296.218 77.25ZM272.458 91L271.957 90.1345L271.458 90.4233V91H272.458ZM272.458 113L272.956 113.867L273.458 113.579V113H272.458ZM262.888 118.5H261.888V120.228L263.386 119.367L262.888 118.5ZM262.888 37.1L262.388 36.234L261.888 36.5227V37.1H262.888ZM296.218 17.85L296.718 18.716L296.725 18.7119L296.218 17.85ZM302.818 17.3L302.318 18.1662L302.325 18.1702L302.332 18.1742L302.818 17.3ZM304.358 55.91L303.44 55.5124L303.435 55.5254L303.429 55.5386L304.358 55.91ZM300.838 62.07L300.045 61.4603L300.042 61.4649L300.838 62.07ZM296.218 66.25L295.711 65.3881L296.71 67.1206L296.218 66.25ZM302.818 65.7L302.318 66.5662L302.325 66.5702L302.332 66.5742L302.818 65.7ZM305.788 93.75L306.286 94.617L306.788 94.3287V93.75H305.788ZM296.218 99.25H295.218V100.978L296.716 100.117L296.218 99.25ZM296.218 66.25L296.719 67.1155L297.218 66.8267V66.25H296.218ZM296.218 28.85H297.218V27.1159L295.717 27.9845L296.218 28.85ZM272.458 42.6L271.957 41.7345L271.458 42.0233V42.6H272.458ZM272.458 80H271.458V81.7341L272.959 80.8655L272.458 80ZM296.218 77.25H297.218V76.6713L296.716 76.383L296.218 77.25ZM296.218 99.25L295.72 100.117L297.218 100.978V99.25H296.218ZM286.648 93.75H285.648V94.3287L286.15 94.617L286.648 93.75ZM286.648 71.75L287.146 70.883L285.648 70.0219V71.75H286.648ZM302.928 65.7L302.442 66.5742L303.426 64.833L302.928 65.7ZM296.218 66.25L295.72 67.117L296.224 67.4067L296.725 67.1119L296.218 66.25ZM286.648 60.75L286.152 59.8818L284.637 60.7475L286.15 61.617L286.648 60.75ZM293.358 60.2L292.858 61.0662L292.86 61.067L293.358 60.2ZM296.218 28.85H297.218V28.2713L296.716 27.983L296.218 28.85ZM296.218 66.25L295.72 67.117L297.218 67.9781V66.25H296.218ZM286.648 60.75H285.648V61.3287L286.15 61.617L286.648 60.75ZM286.648 23.35L287.146 22.483L285.648 21.6219V23.35H286.648ZM296.218 66.25L296.719 67.1155L298.22 66.247L296.716 65.383L296.218 66.25ZM272.458 80L271.96 80.867L272.46 81.1544L272.959 80.8655L272.458 80ZM262.888 74.5L262.387 73.6345L260.886 74.503L262.39 75.367L262.888 74.5ZM286.648 60.75L287.146 59.883L286.646 59.5956L286.147 59.8845L286.648 60.75ZM302.928 17.3L302.442 18.1742L303.426 16.433L302.928 17.3ZM296.218 17.85L296.718 18.716L296.725 18.7119L296.218 17.85ZM262.888 37.1L262.39 37.967L262.889 38.2541L263.388 37.9659L262.888 37.1ZM253.318 31.6L252.818 30.7341L251.315 31.6021L252.82 32.467L253.318 31.6ZM286.648 12.35L286.152 11.4817L286.148 11.484L286.648 12.35ZM293.358 11.8L292.858 12.6662L292.86 12.667L293.358 11.8ZM262.888 37.1H263.888V36.5213L263.386 36.233L262.888 37.1ZM262.888 118.5L262.39 119.367L263.888 120.228V118.5H262.888ZM253.318 113H252.318V113.579L252.82 113.867L253.318 113ZM253.318 31.6L253.816 30.733L252.318 29.8719V31.6H253.318ZM296.218 77.25L295.717 76.3845L271.957 90.1345L272.458 91L272.959 91.8655L296.719 78.1155L296.218 77.25ZM272.458 91H271.458V113H272.458H273.458V91H272.458ZM272.458 113L271.96 112.133L262.39 117.633L262.888 118.5L263.386 119.367L272.956 113.867L272.458 113ZM262.888 118.5H263.888V37.1H262.888H261.888V118.5H262.888ZM262.888 37.1L263.388 37.9659L296.718 18.7159L296.218 17.85L295.718 16.984L262.388 36.234L262.888 37.1ZM296.218 17.85L296.725 18.7119C299.02 17.362 300.822 17.3028 302.318 18.1662L302.818 17.3L303.318 16.4338C301.001 15.0972 298.403 15.4047 295.711 16.9881L296.218 17.85ZM302.818 17.3L302.332 18.1742C303.899 19.0448 304.788 20.6557 304.788 23.35H305.788H306.788C306.788 20.1777 305.696 17.7552 303.304 16.4258L302.818 17.3ZM305.788 23.35H304.788V49.75H305.788H306.788V23.35H305.788ZM305.788 49.75H304.788C304.788 51.4895 304.353 53.4067 303.44 55.5124L304.358 55.91L305.275 56.3076C306.27 54.0133 306.788 51.8238 306.788 49.75H305.788ZM304.358 55.91L303.429 55.5386C302.584 57.652 301.457 59.6253 300.045 61.4603L300.838 62.07L301.631 62.6797C303.152 60.7013 304.372 58.568 305.286 56.2814L304.358 55.91ZM300.838 62.07L300.042 61.4649C298.715 63.2101 297.274 64.5044 295.726 65.3794L296.218 66.25L296.71 67.1206C298.535 66.089 300.174 64.5966 301.634 62.6751L300.838 62.07ZM296.218 66.25L296.725 67.1119C299.02 65.762 300.822 65.7028 302.318 66.5662L302.818 65.7L303.318 64.8338C301.001 63.4972 298.403 63.8047 295.711 65.3881L296.218 66.25ZM302.818 65.7L302.332 66.5742C303.899 67.4448 304.788 69.0556 304.788 71.75H305.788H306.788C306.788 68.5777 305.696 66.1552 303.304 64.8258L302.818 65.7ZM305.788 71.75H304.788V93.75H305.788H306.788V71.75H305.788ZM305.788 93.75L305.29 92.883L295.72 98.383L296.218 99.25L296.716 100.117L306.286 94.617L305.788 93.75ZM296.218 99.25H297.218V77.25H296.218H295.218V99.25H296.218ZM296.218 66.25H297.218V28.85H296.218H295.218V66.25H296.218ZM296.218 28.85L295.717 27.9845L271.957 41.7345L272.458 42.6L272.959 43.4655L296.719 29.7155L296.218 28.85ZM272.458 42.6H271.458V80H272.458H273.458V42.6H272.458ZM272.458 80L272.959 80.8655L296.719 67.1155L296.218 66.25L295.717 65.3845L271.957 79.1345L272.458 80ZM296.218 77.25H295.218V99.25H296.218H297.218V77.25H296.218ZM296.218 99.25L296.716 98.383L287.146 92.883L286.648 93.75L286.15 94.617L295.72 100.117L296.218 99.25ZM286.648 93.75H287.648V71.75H286.648H285.648V93.75H286.648ZM286.648 71.75L286.15 72.617L295.72 78.117L296.218 77.25L296.716 76.383L287.146 70.883L286.648 71.75ZM302.928 65.7L303.414 64.8258C301.036 63.5052 298.412 63.7991 295.711 65.3881L296.218 66.25L296.725 67.1119C299.01 65.7675 300.859 65.6948 302.442 66.5742L302.928 65.7ZM296.218 66.25L296.716 65.383L287.146 59.883L286.648 60.75L286.15 61.617L295.72 67.117L296.218 66.25ZM286.648 60.75L287.144 61.6182C289.522 60.2594 291.363 60.2035 292.858 61.0662L293.358 60.2L293.858 59.3338C291.54 57.9965 288.907 58.3072 286.152 59.8818L286.648 60.75ZM293.358 60.2L292.86 61.067L302.43 66.567L302.928 65.7L303.426 64.833L293.856 59.333L293.358 60.2ZM296.218 28.85H295.218V66.25H296.218H297.218V28.85H296.218ZM296.218 66.25L296.716 65.383L287.146 59.883L286.648 60.75L286.15 61.617L295.72 67.117L296.218 66.25ZM286.648 60.75H287.648V23.35H286.648H285.648V60.75H286.648ZM286.648 23.35L286.15 24.217L295.72 29.717L296.218 28.85L296.716 27.983L287.146 22.483L286.648 23.35ZM296.218 66.25L295.717 65.3845L271.957 79.1345L272.458 80L272.959 80.8655L296.719 67.1155L296.218 66.25ZM272.458 80L272.956 79.133L263.386 73.633L262.888 74.5L262.39 75.367L271.96 80.867L272.458 80ZM262.888 74.5L263.389 75.3655L287.149 61.6155L286.648 60.75L286.147 59.8845L262.387 73.6345L262.888 74.5ZM286.648 60.75L286.15 61.617L295.72 67.117L296.218 66.25L296.716 65.383L287.146 59.883L286.648 60.75ZM302.928 17.3L303.414 16.4258C301.036 15.1052 298.412 15.3991 295.711 16.9881L296.218 17.85L296.725 18.7119C299.01 17.3675 300.859 17.2948 302.442 18.1742L302.928 17.3ZM296.218 17.85L295.718 16.984L262.388 36.234L262.888 37.1L263.388 37.9659L296.718 18.7159L296.218 17.85ZM262.888 37.1L263.386 36.233L253.816 30.733L253.318 31.6L252.82 32.467L262.39 37.967L262.888 37.1ZM253.318 31.6L253.818 32.4659L287.148 13.2159L286.648 12.35L286.148 11.484L252.818 30.7341L253.318 31.6ZM286.648 12.35L287.144 13.2182C289.522 11.8594 291.363 11.8035 292.858 12.6662L293.358 11.8L293.858 10.9338C291.54 9.59648 288.907 9.90723 286.152 11.4818L286.648 12.35ZM293.358 11.8L292.86 12.667L302.43 18.167L302.928 17.3L303.426 16.433L293.856 10.933L293.358 11.8ZM262.888 37.1H261.888V118.5H262.888H263.888V37.1H262.888ZM262.888 118.5L263.386 117.633L253.816 112.133L253.318 113L252.82 113.867L262.39 119.367L262.888 118.5ZM253.318 113H254.318V31.6H253.318H252.318V113H253.318ZM253.318 31.6L252.82 32.467L262.39 37.967L262.888 37.1L263.386 36.233L253.816 30.733L253.318 31.6ZM352.7 77.25H353.7V75.5159L352.199 76.3845L352.7 77.25ZM328.94 91L328.439 90.1345L327.94 90.4233V91H328.94ZM328.94 113L329.439 113.867L329.94 113.579V113H328.94ZM319.37 118.5H318.37V120.228L319.869 119.367L319.37 118.5ZM319.37 37.1L318.87 36.234L318.37 36.5227V37.1H319.37ZM352.7 17.85L353.2 18.716L353.207 18.7119L352.7 17.85ZM359.3 17.3L358.801 18.1662L358.808 18.1702L358.815 18.1742L359.3 17.3ZM360.84 55.91L359.923 55.5124L359.917 55.5254L359.912 55.5386L360.84 55.91ZM357.32 62.07L356.528 61.4603L356.524 61.4649L357.32 62.07ZM352.7 66.25L352.193 65.3881L353.192 67.1206L352.7 66.25ZM359.3 65.7L358.801 66.5662L358.808 66.5702L358.815 66.5742L359.3 65.7ZM362.27 93.75L362.769 94.617L363.27 94.3287V93.75H362.27ZM352.7 99.25H351.7V100.978L353.199 100.117L352.7 99.25ZM352.7 66.25L353.201 67.1155L353.7 66.8267V66.25H352.7ZM352.7 28.85H353.7V27.1159L352.199 27.9845L352.7 28.85ZM328.94 42.6L328.439 41.7345L327.94 42.0233V42.6H328.94ZM328.94 80H327.94V81.7341L329.441 80.8655L328.94 80ZM352.7 77.25H353.7V76.6713L353.199 76.383L352.7 77.25ZM352.7 99.25L352.202 100.117L353.7 100.978V99.25H352.7ZM343.13 93.75H342.13V94.3287L342.632 94.617L343.13 93.75ZM343.13 71.75L343.629 70.883L342.13 70.0219V71.75H343.13ZM359.41 65.7L358.925 66.5742L359.909 64.833L359.41 65.7ZM352.7 66.25L352.202 67.117L352.706 67.4067L353.207 67.1119L352.7 66.25ZM343.13 60.75L342.634 59.8818L341.119 60.7475L342.632 61.617L343.13 60.75ZM349.84 60.2L349.341 61.0662L349.342 61.067L349.84 60.2ZM352.7 28.85H353.7V28.2713L353.199 27.983L352.7 28.85ZM352.7 66.25L352.202 67.117L353.7 67.9781V66.25H352.7ZM343.13 60.75H342.13V61.3287L342.632 61.617L343.13 60.75ZM343.13 23.35L343.629 22.483L342.13 21.6219V23.35H343.13ZM352.7 66.25L353.201 67.1155L354.702 66.247L353.199 65.383L352.7 66.25ZM328.94 80L328.442 80.867L328.942 81.1544L329.441 80.8655L328.94 80ZM319.37 74.5L318.869 73.6345L317.369 74.503L318.872 75.367L319.37 74.5ZM343.13 60.75L343.629 59.883L343.129 59.5956L342.629 59.8845L343.13 60.75ZM359.41 17.3L358.925 18.1742L359.909 16.433L359.41 17.3ZM352.7 17.85L353.2 18.716L353.207 18.7119L352.7 17.85ZM319.37 37.1L318.872 37.967L319.372 38.2541L319.87 37.9659L319.37 37.1ZM309.8 31.6L309.3 30.7341L307.797 31.6021L309.302 32.467L309.8 31.6ZM343.13 12.35L342.634 11.4817L342.63 11.484L343.13 12.35ZM349.84 11.8L349.341 12.6662L349.342 12.667L349.84 11.8ZM319.37 37.1H320.37V36.5213L319.869 36.233L319.37 37.1ZM319.37 118.5L318.872 119.367L320.37 120.228V118.5H319.37ZM309.8 113H308.8V113.579L309.302 113.867L309.8 113ZM309.8 31.6L310.299 30.733L308.8 29.8719V31.6H309.8ZM352.7 77.25L352.199 76.3845L328.439 90.1345L328.94 91L329.441 91.8655L353.201 78.1155L352.7 77.25ZM328.94 91H327.94V113H328.94H329.94V91H328.94ZM328.94 113L328.442 112.133L318.872 117.633L319.37 118.5L319.869 119.367L329.439 113.867L328.94 113ZM319.37 118.5H320.37V37.1H319.37H318.37V118.5H319.37ZM319.37 37.1L319.87 37.9659L353.2 18.7159L352.7 17.85L352.2 16.984L318.87 36.234L319.37 37.1ZM352.7 17.85L353.207 18.7119C355.502 17.362 357.304 17.3028 358.801 18.1662L359.3 17.3L359.8 16.4338C357.483 15.0972 354.885 15.4047 352.193 16.9881L352.7 17.85ZM359.3 17.3L358.815 18.1742C360.382 19.0448 361.27 20.6557 361.27 23.35H362.27H363.27C363.27 20.1777 362.179 17.7552 359.786 16.4258L359.3 17.3ZM362.27 23.35H361.27V49.75H362.27H363.27V23.35H362.27ZM362.27 49.75H361.27C361.27 51.4895 360.835 53.4067 359.923 55.5124L360.84 55.91L361.758 56.3076C362.752 54.0133 363.27 51.8238 363.27 49.75H362.27ZM360.84 55.91L359.912 55.5386C359.066 57.652 357.939 59.6253 356.528 61.4603L357.32 62.07L358.113 62.6797C359.635 60.7013 360.854 58.568 361.769 56.2814L360.84 55.91ZM357.32 62.07L356.524 61.4649C355.198 63.2101 353.756 64.5044 352.208 65.3794L352.7 66.25L353.192 67.1206C355.018 66.089 356.656 64.5966 358.116 62.6751L357.32 62.07ZM352.7 66.25L353.207 67.1119C355.502 65.762 357.304 65.7028 358.801 66.5662L359.3 65.7L359.8 64.8338C357.483 63.4972 354.885 63.8047 352.193 65.3881L352.7 66.25ZM359.3 65.7L358.815 66.5742C360.382 67.4448 361.27 69.0556 361.27 71.75H362.27H363.27C363.27 68.5777 362.179 66.1552 359.786 64.8258L359.3 65.7ZM362.27 71.75H361.27V93.75H362.27H363.27V71.75H362.27ZM362.27 93.75L361.772 92.883L352.202 98.383L352.7 99.25L353.199 100.117L362.769 94.617L362.27 93.75ZM352.7 99.25H353.7V77.25H352.7H351.7V99.25H352.7ZM352.7 66.25H353.7V28.85H352.7H351.7V66.25H352.7ZM352.7 28.85L352.199 27.9845L328.439 41.7345L328.94 42.6L329.441 43.4655L353.201 29.7155L352.7 28.85ZM328.94 42.6H327.94V80H328.94H329.94V42.6H328.94ZM328.94 80L329.441 80.8655L353.201 67.1155L352.7 66.25L352.199 65.3845L328.439 79.1345L328.94 80ZM352.7 77.25H351.7V99.25H352.7H353.7V77.25H352.7ZM352.7 99.25L353.199 98.383L343.629 92.883L343.13 93.75L342.632 94.617L352.202 100.117L352.7 99.25ZM343.13 93.75H344.13V71.75H343.13H342.13V93.75H343.13ZM343.13 71.75L342.632 72.617L352.202 78.117L352.7 77.25L353.199 76.383L343.629 70.883L343.13 71.75ZM359.41 65.7L359.896 64.8258C357.519 63.5052 354.895 63.7991 352.193 65.3881L352.7 66.25L353.207 67.1119C355.493 65.7675 357.342 65.6948 358.925 66.5742L359.41 65.7ZM352.7 66.25L353.199 65.383L343.629 59.883L343.13 60.75L342.632 61.617L352.202 67.117L352.7 66.25ZM343.13 60.75L343.626 61.6182C346.004 60.2594 347.845 60.2035 349.341 61.0662L349.84 60.2L350.34 59.3338C348.022 57.9965 345.39 58.3072 342.634 59.8818L343.13 60.75ZM349.84 60.2L349.342 61.067L358.912 66.567L359.41 65.7L359.909 64.833L350.339 59.333L349.84 60.2ZM352.7 28.85H351.7V66.25H352.7H353.7V28.85H352.7ZM352.7 66.25L353.199 65.383L343.629 59.883L343.13 60.75L342.632 61.617L352.202 67.117L352.7 66.25ZM343.13 60.75H344.13V23.35H343.13H342.13V60.75H343.13ZM343.13 23.35L342.632 24.217L352.202 29.717L352.7 28.85L353.199 27.983L343.629 22.483L343.13 23.35ZM352.7 66.25L352.199 65.3845L328.439 79.1345L328.94 80L329.441 80.8655L353.201 67.1155L352.7 66.25ZM328.94 80L329.439 79.133L319.869 73.633L319.37 74.5L318.872 75.367L328.442 80.867L328.94 80ZM319.37 74.5L319.871 75.3655L343.631 61.6155L343.13 60.75L342.629 59.8845L318.869 73.6345L319.37 74.5ZM343.13 60.75L342.632 61.617L352.202 67.117L352.7 66.25L353.199 65.383L343.629 59.883L343.13 60.75ZM359.41 17.3L359.896 16.4258C357.519 15.1052 354.895 15.3991 352.193 16.9881L352.7 17.85L353.207 18.7119C355.493 17.3675 357.342 17.2948 358.925 18.1742L359.41 17.3ZM352.7 17.85L352.2 16.984L318.87 36.234L319.37 37.1L319.87 37.9659L353.2 18.7159L352.7 17.85ZM319.37 37.1L319.869 36.233L310.299 30.733L309.8 31.6L309.302 32.467L318.872 37.967L319.37 37.1ZM309.8 31.6L310.3 32.4659L343.63 13.2159L343.13 12.35L342.63 11.484L309.3 30.7341L309.8 31.6ZM343.13 12.35L343.626 13.2182C346.004 11.8594 347.845 11.8035 349.341 12.6662L349.84 11.8L350.34 10.9338C348.022 9.59648 345.39 9.90723 342.634 11.4818L343.13 12.35ZM349.84 11.8L349.342 12.667L358.912 18.167L359.41 17.3L359.909 16.433L350.339 10.933L349.84 11.8ZM319.37 37.1H318.37V118.5H319.37H320.37V37.1H319.37ZM319.37 118.5L319.869 117.633L310.299 112.133L309.8 113L309.302 113.867L318.872 119.367L319.37 118.5ZM309.8 113H310.8V31.6H309.8H308.8V113H309.8ZM309.8 31.6L309.302 32.467L318.872 37.967L319.37 37.1L319.869 36.233L310.299 30.733L309.8 31.6ZM385.423 31.6L385.915 32.4706L385.924 32.4655L385.423 31.6ZM409.183 17.85L409.684 18.7155L409.69 18.7119L409.183 17.85ZM415.783 17.3L415.283 18.1662L415.29 18.1702L415.297 18.1742L415.783 17.3ZM417.323 93.31L416.405 92.9124L416.4 92.9254L416.394 92.9386L417.323 93.31ZM413.803 99.47L413.01 98.8603L413.007 98.8649L413.803 99.47ZM409.183 103.65L408.691 102.779L408.682 102.784L409.183 103.65ZM385.423 117.4L385.919 118.268L385.924 118.266L385.423 117.4ZM378.713 117.95L378.213 118.816L378.713 117.95ZM377.173 41.94L378.097 42.3224L378.101 42.3114L377.173 41.94ZM380.693 35.89L381.474 36.5147L381.48 36.5073L381.485 36.4997L380.693 35.89ZM385.423 106.4H384.423V108.134L385.924 107.266L385.423 106.4ZM409.183 92.65L409.684 93.5155L410.183 93.2267V92.65H409.183ZM409.183 28.85H410.183V27.1159L408.682 27.9845L409.183 28.85ZM385.423 42.6L384.922 41.7345L384.423 42.0233V42.6H385.423ZM409.183 28.85H410.183V28.2713L409.681 27.983L409.183 28.85ZM409.183 92.65L408.684 93.517L410.183 94.3781V92.65H409.183ZM399.613 87.15H398.613V87.7287L399.114 88.017L399.613 87.15ZM399.613 23.35L400.111 22.483L398.613 21.6219V23.35H399.613ZM409.183 92.65L409.684 93.5155L411.184 92.647L409.681 91.783L409.183 92.65ZM385.423 106.4L384.924 107.267L385.424 107.554L385.924 107.266L385.423 106.4ZM375.853 100.9L375.352 100.034L373.851 100.903L375.354 101.767L375.853 100.9ZM399.613 87.15L400.111 86.283L399.611 85.9956L399.112 86.2845L399.613 87.15ZM415.893 17.3L415.407 18.1742L416.391 16.433L415.893 17.3ZM409.183 17.85L409.684 18.7155L409.69 18.7119L409.183 17.85ZM385.423 31.6L385.915 32.4706L385.924 32.4655L385.423 31.6ZM380.693 35.89L381.474 36.5147L381.48 36.5073L381.485 36.4997L380.693 35.89ZM377.173 41.94L378.097 42.3224L378.101 42.3114L377.173 41.94ZM378.713 117.95L378.214 118.817L379.212 117.084L378.713 117.95ZM369.143 112.45L368.643 113.316L368.644 113.317L369.143 112.45ZM367.603 36.44L368.527 36.8224L368.531 36.8114L367.603 36.44ZM371.123 30.39L371.904 31.0147L371.91 31.0073L371.915 30.9997L371.123 30.39ZM375.853 26.1L376.345 26.9706L376.354 26.9655L375.853 26.1ZM399.613 12.35L399.117 11.4817L399.112 11.4845L399.613 12.35ZM406.323 11.8L405.823 12.6662L405.824 12.667L406.323 11.8ZM385.423 31.6L385.924 32.4655L409.684 18.7155L409.183 17.85L408.682 16.9845L384.922 30.7345L385.423 31.6ZM409.183 17.85L409.69 18.7119C411.985 17.362 413.786 17.3028 415.283 18.1662L415.783 17.3L416.282 16.4338C413.966 15.0972 411.367 15.4047 408.676 16.9881L409.183 17.85ZM415.783 17.3L415.297 18.1742C416.864 19.0448 417.753 20.6557 417.753 23.35H418.753H419.753C419.753 20.1777 418.661 17.7552 416.268 16.4258L415.783 17.3ZM418.753 23.35H417.753V87.15H418.753H419.753V23.35H418.753ZM418.753 87.15H417.753C417.753 88.8895 417.318 90.8067 416.405 92.9124L417.323 93.31L418.24 93.7076C419.234 91.4133 419.753 89.2238 419.753 87.15H418.753ZM417.323 93.31L416.394 92.9386C415.549 95.052 414.422 97.0253 413.01 98.8603L413.803 99.47L414.595 100.08C416.117 98.1013 417.337 95.968 418.251 93.6814L417.323 93.31ZM413.803 99.47L413.007 98.8649C411.68 100.61 410.239 101.904 408.691 102.779L409.183 103.65L409.675 104.521C411.5 103.489 413.139 101.997 414.599 100.075L413.803 99.47ZM409.183 103.65L408.682 102.784L384.922 116.534L385.423 117.4L385.924 118.266L409.684 104.516L409.183 103.65ZM385.423 117.4L384.927 116.532C382.549 117.891 380.708 117.946 379.212 117.084L378.713 117.95L378.213 118.816C380.531 120.154 383.163 119.843 385.919 118.268L385.423 117.4ZM378.713 117.95L379.212 117.084C377.717 116.221 376.853 114.611 376.853 111.9H375.853H374.853C374.853 115.055 375.895 117.479 378.213 118.816L378.713 117.95ZM375.853 111.9H376.853V48.1H375.853H374.853V111.9H375.853ZM375.853 48.1H376.853C376.853 46.2707 377.259 44.3472 378.097 42.3223L377.173 41.94L376.249 41.5576C375.327 43.7861 374.853 45.9693 374.853 48.1H375.853ZM377.173 41.94L378.101 42.3114C378.945 40.2018 380.069 38.2706 381.474 36.5147L380.693 35.89L379.912 35.2653C378.383 37.1761 377.16 39.2782 376.244 41.5686L377.173 41.94ZM380.693 35.89L381.485 36.4997C382.889 34.6744 384.369 33.3441 385.915 32.4706L385.423 31.6L384.931 30.7294C383.103 31.7626 381.429 33.2923 379.9 35.2803L380.693 35.89ZM385.423 106.4L385.924 107.266L409.684 93.5155L409.183 92.65L408.682 91.7845L384.922 105.534L385.423 106.4ZM409.183 92.65H410.183V28.85H409.183H408.183V92.65H409.183ZM409.183 28.85L408.682 27.9845L384.922 41.7345L385.423 42.6L385.924 43.4655L409.684 29.7155L409.183 28.85ZM385.423 42.6H384.423V106.4H385.423H386.423V42.6H385.423ZM409.183 28.85H408.183V92.65H409.183H410.183V28.85H409.183ZM409.183 92.65L409.681 91.783L400.111 86.283L399.613 87.15L399.114 88.017L408.684 93.517L409.183 92.65ZM399.613 87.15H400.613V23.35H399.613H398.613V87.15H399.613ZM399.613 23.35L399.114 24.217L408.684 29.717L409.183 28.85L409.681 27.983L400.111 22.483L399.613 23.35ZM409.183 92.65L408.682 91.7845L384.922 105.534L385.423 106.4L385.924 107.266L409.684 93.5155L409.183 92.65ZM385.423 106.4L385.921 105.533L376.351 100.033L375.853 100.9L375.354 101.767L384.924 107.267L385.423 106.4ZM375.853 100.9L376.354 101.766L400.114 88.0155L399.613 87.15L399.112 86.2845L375.352 100.034L375.853 100.9ZM399.613 87.15L399.114 88.017L408.684 93.517L409.183 92.65L409.681 91.783L400.111 86.283L399.613 87.15ZM415.893 17.3L416.378 16.4258C414.001 15.1052 411.377 15.3991 408.676 16.9881L409.183 17.85L409.69 18.7119C411.975 17.3675 413.824 17.2948 415.407 18.1742L415.893 17.3ZM409.183 17.85L408.682 16.9845L384.922 30.7345L385.423 31.6L385.924 32.4655L409.684 18.7155L409.183 17.85ZM385.423 31.6L384.931 30.7294C383.103 31.7626 381.429 33.2923 379.9 35.2803L380.693 35.89L381.485 36.4997C382.889 34.6744 384.369 33.3441 385.915 32.4706L385.423 31.6ZM380.693 35.89L379.912 35.2653C378.383 37.1761 377.16 39.2782 376.244 41.5686L377.173 41.94L378.101 42.3114C378.945 40.2018 380.069 38.2706 381.474 36.5147L380.693 35.89ZM377.173 41.94L376.249 41.5576C375.327 43.7861 374.853 45.9693 374.853 48.1H375.853H376.853C376.853 46.2707 377.259 44.3472 378.097 42.3223L377.173 41.94ZM375.853 48.1H374.853V111.9H375.853H376.853V48.1H375.853ZM375.853 111.9H374.853C374.853 115.055 375.895 117.479 378.213 118.816L378.713 117.95L379.212 117.084C377.717 116.221 376.853 114.611 376.853 111.9H375.853ZM378.713 117.95L379.211 117.083L369.641 111.583L369.143 112.45L368.644 113.317L378.214 118.817L378.713 117.95ZM369.143 112.45L369.642 111.584C368.147 110.721 367.283 109.111 367.283 106.4H366.283H365.283C365.283 109.555 366.325 111.979 368.643 113.316L369.143 112.45ZM366.283 106.4H367.283V42.6H366.283H365.283V106.4H366.283ZM366.283 42.6H367.283C367.283 40.7707 367.689 38.8472 368.527 36.8223L367.603 36.44L366.679 36.0576C365.757 38.2861 365.283 40.4693 365.283 42.6H366.283ZM367.603 36.44L368.531 36.8114C369.375 34.7018 370.499 32.7706 371.904 31.0147L371.123 30.39L370.342 29.7653C368.813 31.6761 367.59 33.7782 366.674 36.0686L367.603 36.44ZM371.123 30.39L371.915 30.9997C373.319 29.1744 374.799 27.8441 376.345 26.9706L375.853 26.1L375.361 25.2294C373.533 26.2626 371.859 27.7923 370.33 29.7803L371.123 30.39ZM375.853 26.1L376.354 26.9655L400.114 13.2155L399.613 12.35L399.112 11.4845L375.352 25.2345L375.853 26.1ZM399.613 12.35L400.109 13.2182C402.487 11.8594 404.328 11.8035 405.823 12.6662L406.323 11.8L406.822 10.9338C404.504 9.59648 401.872 9.90723 399.117 11.4818L399.613 12.35ZM406.323 11.8L405.824 12.667L415.394 18.167L415.893 17.3L416.391 16.433L406.821 10.933L406.323 11.8ZM465.665 77.25H466.665V75.5159L465.164 76.3845L465.665 77.25ZM441.905 91L441.404 90.1345L440.905 90.4233V91H441.905ZM441.905 113L442.403 113.867L442.905 113.579V113H441.905ZM432.335 118.5H431.335V120.228L432.833 119.367L432.335 118.5ZM432.335 37.1L431.835 36.234L431.335 36.5227V37.1H432.335ZM465.665 17.85L466.165 18.716L466.172 18.7119L465.665 17.85ZM472.265 17.3L471.765 18.1662L471.772 18.1702L471.78 18.1742L472.265 17.3ZM473.805 55.91L472.888 55.5124L472.882 55.5254L472.877 55.5386L473.805 55.91ZM470.285 62.07L469.493 61.4603L469.489 61.4649L470.285 62.07ZM465.665 66.25L465.158 65.3881L466.157 67.1206L465.665 66.25ZM472.265 65.7L471.765 66.5662L471.772 66.5702L471.78 66.5742L472.265 65.7ZM475.235 93.75L475.733 94.617L476.235 94.3287V93.75H475.235ZM465.665 99.25H464.665V100.978L466.163 100.117L465.665 99.25ZM465.665 66.25L466.166 67.1155L466.665 66.8267V66.25H465.665ZM465.665 28.85H466.665V27.1159L465.164 27.9845L465.665 28.85ZM441.905 42.6L441.404 41.7345L440.905 42.0233V42.6H441.905ZM441.905 80H440.905V81.7341L442.406 80.8655L441.905 80ZM465.665 77.25H466.665V76.6713L466.163 76.383L465.665 77.25ZM465.665 99.25L465.167 100.117L466.665 100.978V99.25H465.665ZM456.095 93.75H455.095V94.3287L455.597 94.617L456.095 93.75ZM456.095 71.75L456.593 70.883L455.095 70.0219V71.75H456.095ZM472.375 65.7L471.89 66.5742L472.873 64.833L472.375 65.7ZM465.665 66.25L465.167 67.117L465.671 67.4067L466.172 67.1119L465.665 66.25ZM456.095 60.75L455.599 59.8818L454.084 60.7475L455.597 61.617L456.095 60.75ZM462.805 60.2L462.305 61.0662L462.307 61.067L462.805 60.2ZM465.665 28.85H466.665V28.2713L466.163 27.983L465.665 28.85ZM465.665 66.25L465.167 67.117L466.665 67.9781V66.25H465.665ZM456.095 60.75H455.095V61.3287L455.597 61.617L456.095 60.75ZM456.095 23.35L456.593 22.483L455.095 21.6219V23.35H456.095ZM465.665 66.25L466.166 67.1155L467.667 66.247L466.163 65.383L465.665 66.25ZM441.905 80L441.407 80.867L441.907 81.1544L442.406 80.8655L441.905 80ZM432.335 74.5L431.834 73.6345L430.333 74.503L431.837 75.367L432.335 74.5ZM456.095 60.75L456.593 59.883L456.093 59.5956L455.594 59.8845L456.095 60.75ZM472.375 17.3L471.89 18.1742L472.873 16.433L472.375 17.3ZM465.665 17.85L466.165 18.716L466.172 18.7119L465.665 17.85ZM432.335 37.1L431.837 37.967L432.336 38.2541L432.835 37.9659L432.335 37.1ZM422.765 31.6L422.265 30.7341L420.762 31.6021L422.267 32.467L422.765 31.6ZM456.095 12.35L455.599 11.4817L455.595 11.484L456.095 12.35ZM462.805 11.8L462.305 12.6662L462.307 12.667L462.805 11.8ZM432.335 37.1H433.335V36.5213L432.833 36.233L432.335 37.1ZM432.335 118.5L431.837 119.367L433.335 120.228V118.5H432.335ZM422.765 113H421.765V113.579L422.267 113.867L422.765 113ZM422.765 31.6L423.263 30.733L421.765 29.8719V31.6H422.765ZM465.665 77.25L465.164 76.3845L441.404 90.1345L441.905 91L442.406 91.8655L466.166 78.1155L465.665 77.25ZM441.905 91H440.905V113H441.905H442.905V91H441.905ZM441.905 113L441.407 112.133L431.837 117.633L432.335 118.5L432.833 119.367L442.403 113.867L441.905 113ZM432.335 118.5H433.335V37.1H432.335H431.335V118.5H432.335ZM432.335 37.1L432.835 37.9659L466.165 18.7159L465.665 17.85L465.165 16.984L431.835 36.234L432.335 37.1ZM465.665 17.85L466.172 18.7119C468.467 17.362 470.269 17.3028 471.765 18.1662L472.265 17.3L472.765 16.4338C470.448 15.0972 467.85 15.4047 465.158 16.9881L465.665 17.85ZM472.265 17.3L471.78 18.1742C473.347 19.0448 474.235 20.6557 474.235 23.35H475.235H476.235C476.235 20.1777 475.144 17.7552 472.751 16.4258L472.265 17.3ZM475.235 23.35H474.235V49.75H475.235H476.235V23.35H475.235ZM475.235 49.75H474.235C474.235 51.4895 473.8 53.4067 472.888 55.5124L473.805 55.91L474.723 56.3076C475.717 54.0133 476.235 51.8238 476.235 49.75H475.235ZM473.805 55.91L472.877 55.5386C472.031 57.652 470.904 59.6253 469.493 61.4603L470.285 62.07L471.078 62.6797C472.6 60.7013 473.819 58.568 474.734 56.2814L473.805 55.91ZM470.285 62.07L469.489 61.4649C468.163 63.2101 466.721 64.5044 465.173 65.3794L465.665 66.25L466.157 67.1206C467.982 66.089 469.621 64.5966 471.081 62.6751L470.285 62.07ZM465.665 66.25L466.172 67.1119C468.467 65.762 470.269 65.7028 471.765 66.5662L472.265 65.7L472.765 64.8338C470.448 63.4972 467.85 63.8047 465.158 65.3881L465.665 66.25ZM472.265 65.7L471.78 66.5742C473.347 67.4448 474.235 69.0556 474.235 71.75H475.235H476.235C476.235 68.5777 475.144 66.1552 472.751 64.8258L472.265 65.7ZM475.235 71.75H474.235V93.75H475.235H476.235V71.75H475.235ZM475.235 93.75L474.737 92.883L465.167 98.383L465.665 99.25L466.163 100.117L475.733 94.617L475.235 93.75ZM465.665 99.25H466.665V77.25H465.665H464.665V99.25H465.665ZM465.665 66.25H466.665V28.85H465.665H464.665V66.25H465.665ZM465.665 28.85L465.164 27.9845L441.404 41.7345L441.905 42.6L442.406 43.4655L466.166 29.7155L465.665 28.85ZM441.905 42.6H440.905V80H441.905H442.905V42.6H441.905ZM441.905 80L442.406 80.8655L466.166 67.1155L465.665 66.25L465.164 65.3845L441.404 79.1345L441.905 80ZM465.665 77.25H464.665V99.25H465.665H466.665V77.25H465.665ZM465.665 99.25L466.163 98.383L456.593 92.883L456.095 93.75L455.597 94.617L465.167 100.117L465.665 99.25ZM456.095 93.75H457.095V71.75H456.095H455.095V93.75H456.095ZM456.095 71.75L455.597 72.617L465.167 78.117L465.665 77.25L466.163 76.383L456.593 70.883L456.095 71.75ZM472.375 65.7L472.861 64.8258C470.484 63.5052 467.859 63.7991 465.158 65.3881L465.665 66.25L466.172 67.1119C468.458 65.7675 470.307 65.6948 471.89 66.5742L472.375 65.7ZM465.665 66.25L466.163 65.383L456.593 59.883L456.095 60.75L455.597 61.617L465.167 67.117L465.665 66.25ZM456.095 60.75L456.591 61.6182C458.969 60.2594 460.81 60.2035 462.305 61.0662L462.805 60.2L463.305 59.3338C460.987 57.9965 458.354 58.3072 455.599 59.8818L456.095 60.75ZM462.805 60.2L462.307 61.067L471.877 66.567L472.375 65.7L472.873 64.833L463.303 59.333L462.805 60.2ZM465.665 28.85H464.665V66.25H465.665H466.665V28.85H465.665ZM465.665 66.25L466.163 65.383L456.593 59.883L456.095 60.75L455.597 61.617L465.167 67.117L465.665 66.25ZM456.095 60.75H457.095V23.35H456.095H455.095V60.75H456.095ZM456.095 23.35L455.597 24.217L465.167 29.717L465.665 28.85L466.163 27.983L456.593 22.483L456.095 23.35ZM465.665 66.25L465.164 65.3845L441.404 79.1345L441.905 80L442.406 80.8655L466.166 67.1155L465.665 66.25ZM441.905 80L442.403 79.133L432.833 73.633L432.335 74.5L431.837 75.367L441.407 80.867L441.905 80ZM432.335 74.5L432.836 75.3655L456.596 61.6155L456.095 60.75L455.594 59.8845L431.834 73.6345L432.335 74.5ZM456.095 60.75L455.597 61.617L465.167 67.117L465.665 66.25L466.163 65.383L456.593 59.883L456.095 60.75ZM472.375 17.3L472.861 16.4258C470.484 15.1052 467.859 15.3991 465.158 16.9881L465.665 17.85L466.172 18.7119C468.458 17.3675 470.307 17.2948 471.89 18.1742L472.375 17.3ZM465.665 17.85L465.165 16.984L431.835 36.234L432.335 37.1L432.835 37.9659L466.165 18.7159L465.665 17.85ZM432.335 37.1L432.833 36.233L423.263 30.733L422.765 31.6L422.267 32.467L431.837 37.967L432.335 37.1ZM422.765 31.6L423.265 32.4659L456.595 13.2159L456.095 12.35L455.595 11.484L422.265 30.7341L422.765 31.6ZM456.095 12.35L456.591 13.2182C458.969 11.8594 460.81 11.8035 462.305 12.6662L462.805 11.8L463.305 10.9338C460.987 9.59648 458.354 9.90723 455.599 11.4818L456.095 12.35ZM462.805 11.8L462.307 12.667L471.877 18.167L472.375 17.3L472.873 16.433L463.303 10.933L462.805 11.8ZM432.335 37.1H431.335V118.5H432.335H433.335V37.1H432.335ZM432.335 118.5L432.833 117.633L423.263 112.133L422.765 113L422.267 113.867L431.837 119.367L432.335 118.5ZM422.765 113H423.765V31.6H422.765H421.765V113H422.765ZM422.765 31.6L422.267 32.467L431.837 37.967L432.335 37.1L432.833 36.233L423.263 30.733L422.765 31.6Z" fill="#9858F3" mask="url(#path-1-outside-1_2288_2902)"/>
<path d="M36.04 42V90L56.8 78V30L67.12 24V120L56.8 126V78C56.8 80.08 56.32 82.32 55.36 84.72C54.4 87.12 53.12 89.36 51.52 91.44C49.92 93.44 48.2 94.96 46.36 96L25.6 108V60C25.6 57.84 26.08 55.6 27.04 53.28C28 50.88 29.28 48.68 30.88 46.68C32.48 44.6 34.2 43.04 36.04 42ZM56.8 78V126L46.36 120V72L56.8 78ZM67.12 24L56.8 30L46.36 24L56.8 18L67.12 24ZM56.8 30V78L46.36 72V24L56.8 30ZM56.8 78L36.04 90L25.6 84L46.36 72L56.8 78ZM36.04 42C34.2 43.04 32.48 44.6 30.88 46.68C29.28 48.68 28 50.88 27.04 53.28C26.08 55.6 25.6 57.84 25.6 60V108L15.16 102V54C15.16 51.84 15.64 49.6 16.6 47.28C17.56 44.88 18.84 42.68 20.44 40.68C22.04 38.6 23.76 37.04 25.6 36L36.04 42ZM102.704 27.6C106.384 25.44 109.784 24.6 112.904 25.08C116.104 25.48 118.664 26.96 120.584 29.52C122.504 32 123.464 35.36 123.464 39.6V87.6C123.464 90.8 122.904 94.16 121.784 97.68C120.664 101.2 119.144 104.64 117.224 108C115.304 111.36 113.104 114.4 110.624 117.12C108.144 119.84 105.504 122 102.704 123.6C99.0238 125.68 95.5838 126.52 92.3838 126.12C89.2638 125.72 86.7438 124.24 84.8238 121.68C82.9038 119.2 81.9438 115.84 81.9438 111.6V63.6C81.9438 60.4 82.5038 57.04 83.6238 53.52C84.7438 50 86.2638 46.56 88.1838 43.2C90.1038 39.84 92.3038 36.8 94.7838 34.08C97.3438 31.36 99.9838 29.2 102.704 27.6ZM113.144 45.6C113.144 42.4 112.104 40.2 110.024 39C107.944 37.8 105.504 38 102.704 39.6C100.864 40.64 99.1438 42.2 97.5438 44.28C96.0238 46.28 94.7838 48.48 93.8238 50.88C92.8638 53.2 92.3838 55.44 92.3838 57.6V105.6C92.3838 108.8 93.4238 111 95.5038 112.2C97.5838 113.4 99.9838 113.2 102.704 111.6C104.544 110.56 106.264 109.04 107.864 107.04C109.464 104.96 110.744 102.72 111.704 100.32C112.664 97.92 113.144 95.68 113.144 93.6V45.6ZM110.024 39C112.104 40.2 113.144 42.4 113.144 45.6V93.6C113.144 95.68 112.664 97.92 111.704 100.32C110.744 102.72 109.464 104.96 107.864 107.04C106.264 109.04 104.544 110.56 102.704 111.6C99.9838 113.2 97.5838 113.4 95.5038 112.2L85.0638 106.2C87.1438 107.4 89.5838 107.2 92.3838 105.6C94.1438 104.56 95.8238 103.04 97.4238 101.04C99.0238 98.96 100.304 96.72 101.264 94.32C102.224 91.92 102.704 89.68 102.704 87.6V39.6C102.704 36.4 101.664 34.2 99.5838 33L110.024 39ZM117.224 26.4C115.304 25.36 113.104 24.92 110.624 25.08C108.144 25.16 105.504 26 102.704 27.6C99.9838 29.2 97.3438 31.36 94.7838 34.08C92.3038 36.8 90.1038 39.84 88.1838 43.2C86.2638 46.56 84.7438 50 83.6238 53.52C82.5038 57.04 81.9438 60.4 81.9438 63.6V111.6C81.9438 114.8 82.5038 117.52 83.6238 119.76C84.7438 122 86.2638 123.68 88.1838 124.8L77.7438 118.8C75.9038 117.68 74.3838 116 73.1838 113.76C72.0638 111.52 71.5038 108.8 71.5038 105.6V57.6C71.5038 54.4 72.0638 51.04 73.1838 47.52C74.3038 44 75.8238 40.56 77.7438 37.2C79.7438 33.84 81.9838 30.8 84.4638 28.08C86.9438 25.36 89.5838 23.2 92.3838 21.6C95.1038 20 97.7038 19.16 100.184 19.08C102.744 18.92 104.984 19.36 106.904 20.4L117.224 26.4ZM148.728 42V90L169.488 78V30L179.808 24V120L169.488 126V78C169.488 80.08 169.008 82.32 168.048 84.72C167.088 87.12 165.808 89.36 164.208 91.44C162.608 93.44 160.888 94.96 159.048 96L138.288 108V60C138.288 57.84 138.768 55.6 139.728 53.28C140.688 50.88 141.968 48.68 143.568 46.68C145.168 44.6 146.888 43.04 148.728 42ZM169.488 78V126L159.048 120V72L169.488 78ZM179.808 24L169.488 30L159.048 24L169.488 18L179.808 24ZM169.488 30V78L159.048 72V24L169.488 30ZM169.488 78L148.728 90L138.288 84L159.048 72L169.488 78ZM148.728 42C146.888 43.04 145.168 44.6 143.568 46.68C141.968 48.68 140.688 50.88 139.728 53.28C138.768 55.6 138.288 57.84 138.288 60V108L127.848 102V54C127.848 51.84 128.328 49.6 129.288 47.28C130.248 44.88 131.528 42.68 133.128 40.68C134.728 38.6 136.448 37.04 138.288 36L148.728 42ZM216.405 59.5C216.405 57.52 216.845 55.4667 217.725 53.34C218.605 51.14 219.779 49.1233 221.245 47.29C222.712 45.3833 224.289 43.9533 225.975 43L259.305 23.75V34.75L225.975 54V78.2L259.305 58.95V69.95L225.975 89.2V113.4L259.305 94.15V105.15L225.975 124.4C223.409 125.867 221.172 126.05 219.265 124.95C217.359 123.85 216.405 121.833 216.405 118.9V59.5ZM259.305 94.15L225.975 113.4L216.405 107.9L249.735 88.65L259.305 94.15ZM259.305 58.95L225.975 78.2L216.405 72.7L249.735 53.45L259.305 58.95ZM259.305 23.75L225.975 43C224.289 43.9533 222.712 45.3833 221.245 47.29C219.779 49.1233 218.605 51.14 217.725 53.34C216.845 55.4667 216.405 57.52 216.405 59.5V118.9C216.405 121.833 217.359 123.85 219.265 124.95L209.695 119.45C207.789 118.35 206.835 116.333 206.835 113.4V54C206.835 52.02 207.275 49.9667 208.155 47.84C209.035 45.64 210.209 43.6233 211.675 41.79C213.142 39.8833 214.719 38.4533 216.405 37.5L249.735 18.25L259.305 23.75ZM306.218 84.25L282.458 98V120L272.888 125.5V44.1L306.218 24.85C308.711 23.3833 310.911 23.2 312.818 24.3C314.798 25.4 315.788 27.4167 315.788 30.35V56.75C315.788 58.6567 315.311 60.71 314.358 62.91C313.478 65.11 312.305 67.1633 310.838 69.07C309.445 70.9033 307.905 72.2967 306.218 73.25C308.711 71.7833 310.911 71.6 312.818 72.7C314.798 73.8 315.788 75.8167 315.788 78.75V100.75L306.218 106.25V84.25ZM306.218 73.25V35.85L282.458 49.6V87L306.218 73.25ZM306.218 84.25V106.25L296.648 100.75V78.75L306.218 84.25ZM312.928 72.7C310.948 71.6 308.711 71.7833 306.218 73.25L296.648 67.75C299.215 66.2833 301.451 66.1 303.358 67.2L312.928 72.7ZM306.218 35.85V73.25L296.648 67.75V30.35L306.218 35.85ZM306.218 73.25L282.458 87L272.888 81.5L296.648 67.75L306.218 73.25ZM312.928 24.3C310.948 23.2 308.711 23.3833 306.218 24.85L272.888 44.1L263.318 38.6L296.648 19.35C299.215 17.8833 301.451 17.7 303.358 18.8L312.928 24.3ZM272.888 44.1V125.5L263.318 120V38.6L272.888 44.1ZM362.7 84.25L338.94 98V120L329.37 125.5V44.1L362.7 24.85C365.194 23.3833 367.394 23.2 369.3 24.3C371.28 25.4 372.27 27.4167 372.27 30.35V56.75C372.27 58.6567 371.794 60.71 370.84 62.91C369.96 65.11 368.787 67.1633 367.32 69.07C365.927 70.9033 364.387 72.2967 362.7 73.25C365.194 71.7833 367.394 71.6 369.3 72.7C371.28 73.8 372.27 75.8167 372.27 78.75V100.75L362.7 106.25V84.25ZM362.7 73.25V35.85L338.94 49.6V87L362.7 73.25ZM362.7 84.25V106.25L353.13 100.75V78.75L362.7 84.25ZM369.41 72.7C367.43 71.6 365.194 71.7833 362.7 73.25L353.13 67.75C355.697 66.2833 357.934 66.1 359.84 67.2L369.41 72.7ZM362.7 35.85V73.25L353.13 67.75V30.35L362.7 35.85ZM362.7 73.25L338.94 87L329.37 81.5L353.13 67.75L362.7 73.25ZM369.41 24.3C367.43 23.2 365.194 23.3833 362.7 24.85L329.37 44.1L319.8 38.6L353.13 19.35C355.697 17.8833 357.934 17.7 359.84 18.8L369.41 24.3ZM329.37 44.1V125.5L319.8 120V38.6L329.37 44.1ZM395.423 38.6L419.183 24.85C421.676 23.3833 423.876 23.2 425.783 24.3C427.763 25.4 428.753 27.4167 428.753 30.35V94.15C428.753 96.0567 428.276 98.11 427.323 100.31C426.443 102.51 425.269 104.563 423.803 106.47C422.409 108.303 420.869 109.697 419.183 110.65L395.423 124.4C392.856 125.867 390.619 126.05 388.713 124.95C386.806 123.85 385.853 121.833 385.853 118.9V55.1C385.853 53.12 386.293 51.0667 387.173 48.94C388.053 46.74 389.226 44.7233 390.693 42.89C392.159 40.9833 393.736 39.5533 395.423 38.6ZM395.423 113.4L419.183 99.65V35.85L395.423 49.6V113.4ZM419.183 35.85V99.65L409.613 94.15V30.35L419.183 35.85ZM419.183 99.65L395.423 113.4L385.853 107.9L409.613 94.15L419.183 99.65ZM425.893 24.3C423.913 23.2 421.676 23.3833 419.183 24.85L395.423 38.6C393.736 39.5533 392.159 40.9833 390.693 42.89C389.226 44.7233 388.053 46.74 387.173 48.94C386.293 51.0667 385.853 53.12 385.853 55.1V118.9C385.853 121.833 386.806 123.85 388.713 124.95L379.143 119.45C377.236 118.35 376.283 116.333 376.283 113.4V49.6C376.283 47.62 376.723 45.5667 377.603 43.44C378.483 41.24 379.656 39.2233 381.123 37.39C382.589 35.4833 384.166 34.0533 385.853 33.1L409.613 19.35C412.179 17.8833 414.416 17.7 416.323 18.8L425.893 24.3ZM475.665 84.25L451.905 98V120L442.335 125.5V44.1L475.665 24.85C478.158 23.3833 480.358 23.2 482.265 24.3C484.245 25.4 485.235 27.4167 485.235 30.35V56.75C485.235 58.6567 484.758 60.71 483.805 62.91C482.925 65.11 481.752 67.1633 480.285 69.07C478.892 70.9033 477.352 72.2967 475.665 73.25C478.158 71.7833 480.358 71.6 482.265 72.7C484.245 73.8 485.235 75.8167 485.235 78.75V100.75L475.665 106.25V84.25ZM475.665 73.25V35.85L451.905 49.6V87L475.665 73.25ZM475.665 84.25V106.25L466.095 100.75V78.75L475.665 84.25ZM482.375 72.7C480.395 71.6 478.158 71.7833 475.665 73.25L466.095 67.75C468.662 66.2833 470.898 66.1 472.805 67.2L482.375 72.7ZM475.665 35.85V73.25L466.095 67.75V30.35L475.665 35.85ZM475.665 73.25L451.905 87L442.335 81.5L466.095 67.75L475.665 73.25ZM482.375 24.3C480.395 23.2 478.158 23.3833 475.665 24.85L442.335 44.1L432.765 38.6L466.095 19.35C468.662 17.8833 470.898 17.7 472.805 18.8L482.375 24.3ZM442.335 44.1V125.5L432.765 120V38.6L442.335 44.1Z" fill="#9858F3"/>
</svg>
