<svg width="50" height="50" viewBox="0 0 50 50" fill="none" xmlns="http://www.w3.org/2000/svg">
<circle cx="25" cy="25" r="25" fill="#59D22D"/>
<path d="M32.086 36.7198C33.5776 36.7198 35.0081 36.1271 36.0628 35.072C37.1175 34.0168 37.71 32.5858 37.71 31.0936C37.71 29.6014 37.1175 28.1704 36.0628 27.1152C35.0081 26.0601 33.5776 25.4673 32.086 25.4673C30.5944 25.4673 29.1639 26.0601 28.1092 27.1152C27.0545 28.1704 26.4619 29.6014 26.4619 31.0936C26.4619 32.5858 27.0545 34.0168 28.1092 35.072C29.1639 36.1271 30.5944 36.7198 32.086 36.7198ZM32.8894 28.6823V30.2898H34.4963C34.7094 30.2898 34.9137 30.3745 35.0644 30.5253C35.2151 30.676 35.2997 30.8804 35.2997 31.0936C35.2997 31.3068 35.2151 31.5112 35.0644 31.6619C34.9137 31.8127 34.7094 31.8973 34.4963 31.8973H32.8894V33.5048C32.8894 33.718 32.8048 33.9224 32.6541 34.0732C32.5034 34.2239 32.2991 34.3086 32.086 34.3086C31.8729 34.3086 31.6685 34.2239 31.5179 34.0732C31.3672 33.9224 31.2825 33.718 31.2825 33.5048V31.8973H29.6757C29.4626 31.8973 29.2582 31.8127 29.1076 31.6619C28.9569 31.5112 28.8722 31.3068 28.8722 31.0936C28.8722 30.8804 28.9569 30.676 29.1076 30.5253C29.2582 30.3745 29.4626 30.2898 29.6757 30.2898H31.2825V28.6823C31.2825 28.4692 31.3672 28.2647 31.5179 28.114C31.6685 27.9633 31.8729 27.8786 32.086 27.8786C32.2991 27.8786 32.5034 27.9633 32.6541 28.114C32.8048 28.2647 32.8894 28.4692 32.8894 28.6823ZM29.6757 19.0373C29.6757 20.3163 29.1678 21.543 28.2637 22.4474C27.3597 23.3518 26.1336 23.8598 24.855 23.8598C23.5765 23.8598 22.3504 23.3518 21.4464 22.4474C20.5423 21.543 20.0344 20.3163 20.0344 19.0373C20.0344 17.7583 20.5423 16.5317 21.4464 15.6273C22.3504 14.7229 23.5765 14.2148 24.855 14.2148C26.1336 14.2148 27.3597 14.7229 28.2637 15.6273C29.1678 16.5317 29.6757 17.7583 29.6757 19.0373ZM24.855 22.2523C25.7074 22.2523 26.5248 21.9136 27.1275 21.3107C27.7302 20.7078 28.0688 19.89 28.0688 19.0373C28.0688 18.1847 27.7302 17.3669 27.1275 16.764C26.5248 16.1611 25.7074 15.8223 24.855 15.8223C24.0027 15.8223 23.1853 16.1611 22.5826 16.764C21.9799 17.3669 21.6413 18.1847 21.6413 19.0373C21.6413 19.89 21.9799 20.7078 22.5826 21.3107C23.1853 21.9136 24.0027 22.2523 24.855 22.2523Z" fill="white"/>
<path d="M25.2665 33.5048C25.0825 32.9827 24.959 32.4411 24.8985 31.8909H16.8207C16.8223 31.4954 17.0682 30.3059 18.1577 29.216C19.2053 28.1679 21.177 27.0748 24.8551 27.0748C25.2729 27.0748 25.6693 27.0882 26.0442 27.115C26.4074 26.5668 26.8412 26.0701 27.3361 25.6393C26.5863 25.5268 25.7593 25.4694 24.8551 25.4673C16.8207 25.4673 15.2139 30.2898 15.2139 31.8973C15.2139 33.5048 16.8207 33.5048 16.8207 33.5048H25.2665Z" fill="white"/>
</svg>
