<svg width="15" height="16" viewBox="0 0 15 16" fill="none" xmlns="http://www.w3.org/2000/svg">
<path d="M6 0.27775C6.09737 0.396487 6.15701 0.541622 6.17126 0.694511C6.18552 0.847401 6.15374 1.00106 6.08 1.13575C5.50154 2.1971 5.19959 3.387 5.202 4.59575C5.202 8.61675 8.48 11.8728 12.52 11.8728C13.048 11.8721 13.559 11.8188 14.053 11.7128C14.2041 11.6804 14.3614 11.6931 14.5054 11.7493C14.6494 11.8055 14.7737 11.9026 14.863 12.0288C14.9575 12.16 15.0057 12.3189 15.0001 12.4805C14.9945 12.6422 14.9354 12.7974 14.832 12.9218C14.0476 13.8851 13.0582 14.6614 11.9358 15.1938C10.8134 15.7263 9.58631 16.0016 8.344 15.9998C3.734 15.9998 0 12.2858 0 7.70975C0 4.26575 2.114 1.31175 5.124 0.0597503C5.27389 -0.00394969 5.44043 -0.017131 5.59847 0.0221984C5.75651 0.0615278 5.89745 0.15123 6 0.27775Z" fill="#737373"/>
</svg>
