<svg width="115" height="115" viewBox="0 0 115 115" fill="none" xmlns="http://www.w3.org/2000/svg">
<g clip-path="url(#clip0_2273_881)">
<path d="M78.7445 42.9514C78.7445 48.6471 76.4819 54.1095 72.4544 58.137C68.4269 62.1645 62.9644 64.4271 57.2687 64.4271C51.573 64.4271 46.1105 62.1645 42.083 58.137C38.0556 54.1095 35.7929 48.6471 35.7929 42.9514C35.7929 37.2556 38.0556 31.7932 42.083 27.7657C46.1105 23.7382 51.573 21.4756 57.2687 21.4756C62.9644 21.4756 68.4269 23.7382 72.4544 27.7657C76.4819 31.7932 78.7445 37.2556 78.7445 42.9514Z" fill="#6E6E6E"/>
<path fill-rule="evenodd" clip-rule="evenodd" d="M0 57.2687C0 42.0801 6.03365 27.5136 16.7736 16.7736C27.5136 6.03365 42.0801 0 57.2687 0C72.4573 0 87.0238 6.03365 97.7638 16.7736C108.504 27.5136 114.537 42.0801 114.537 57.2687C114.537 72.4573 108.504 87.0238 97.7638 97.7638C87.0238 108.504 72.4573 114.537 57.2687 114.537C42.0801 114.537 27.5136 108.504 16.7736 97.7638C6.03365 87.0238 0 72.4573 0 57.2687ZM57.2687 7.15859C47.8321 7.15909 38.5874 9.82418 30.5987 14.8471C22.61 19.87 16.2019 27.0467 12.1121 35.5509C8.02224 44.0552 6.41686 53.5415 7.48071 62.918C8.54457 72.2944 12.2344 81.1799 18.1255 88.5518C23.2081 80.3623 34.397 71.5859 57.2687 71.5859C80.1404 71.5859 91.3221 80.3552 96.4119 88.5518C102.303 81.1799 105.993 72.2944 107.057 62.918C108.121 53.5415 106.515 44.0552 102.425 35.5509C98.3355 27.0467 91.9275 19.87 83.9387 14.8471C75.95 9.82418 66.7053 7.15909 57.2687 7.15859Z" fill="#6E6E6E"/>
</g>
<defs>
<clipPath id="clip0_2273_881">
<rect width="114.537" height="114.537" fill="white"/>
</clipPath>
</defs>
</svg>
