<svg width="35" height="35" viewBox="0 0 35 35" fill="none" xmlns="http://www.w3.org/2000/svg">
<circle cx="17.5" cy="17.5" r="17.5" fill="#6E6E6E"/>
<path d="M23.0625 26C24.1068 26 25.1083 25.5852 25.8467 24.8467C26.5852 24.1083 27 23.1068 27 22.0625C27 21.0182 26.5852 20.0167 25.8467 19.2783C25.1083 18.5398 24.1068 18.125 23.0625 18.125C22.0182 18.125 21.0167 18.5398 20.2783 19.2783C19.5398 20.0167 19.125 21.0182 19.125 22.0625C19.125 23.1068 19.5398 24.1083 20.2783 24.8467C21.0167 25.5852 22.0182 26 23.0625 26ZM21.375 21.5H24.75C24.8992 21.5 25.0423 21.5593 25.1477 21.6648C25.2532 21.7702 25.3125 21.9133 25.3125 22.0625C25.3125 22.2117 25.2532 22.3548 25.1477 22.4602C25.0423 22.5657 24.8992 22.625 24.75 22.625H21.375C21.2258 22.625 21.0827 22.5657 20.9773 22.4602C20.8718 22.3548 20.8125 22.2117 20.8125 22.0625C20.8125 21.9133 20.8718 21.7702 20.9773 21.6648C21.0827 21.5593 21.2258 21.5 21.375 21.5ZM21.375 13.625C21.375 14.5201 21.0194 15.3786 20.3865 16.0115C19.7536 16.6444 18.8951 17 18 17C17.1049 17 16.2464 16.6444 15.6135 16.0115C14.9806 15.3786 14.625 14.5201 14.625 13.625C14.625 12.7299 14.9806 11.8714 15.6135 11.2385C16.2464 10.6056 17.1049 10.25 18 10.25C18.8951 10.25 19.7536 10.6056 20.3865 11.2385C21.0194 11.8714 21.375 12.7299 21.375 13.625ZM18 15.875C18.5967 15.875 19.169 15.6379 19.591 15.216C20.0129 14.794 20.25 14.2217 20.25 13.625C20.25 13.0283 20.0129 12.456 19.591 12.034C19.169 11.6121 18.5967 11.375 18 11.375C17.4033 11.375 16.831 11.6121 16.409 12.034C15.9871 12.456 15.75 13.0283 15.75 13.625C15.75 14.2217 15.9871 14.794 16.409 15.216C16.831 15.6379 17.4033 15.875 18 15.875Z" fill="white"/>
<path d="M18.288 23.75C18.1592 23.3846 18.0727 23.0056 18.0304 22.6205H12.375C12.3761 22.3438 12.5483 21.5112 13.311 20.7485C14.0445 20.015 15.4249 19.25 18 19.25C18.2925 19.25 18.57 19.2594 18.8325 19.2781C19.0867 18.8945 19.3905 18.5469 19.737 18.2454C19.212 18.1666 18.633 18.1265 18 18.125C12.375 18.125 11.25 21.5 11.25 22.625C11.25 23.75 12.375 23.75 12.375 23.75H18.288Z" fill="white"/>
</svg>
