<svg width="22" height="22" viewBox="0 0 22 22" fill="none" xmlns="http://www.w3.org/2000/svg">
<g opacity="0.54">
<path d="M13.0908 2.84961C13.6392 2.84961 14.1642 3.0785 14.5498 3.48242C14.9349 3.88607 15.1504 4.43214 15.1504 5V7.66699C15.1503 7.88123 15.0684 8.08767 14.9219 8.24121C14.775 8.39508 14.5741 8.4834 14.3633 8.4834C14.1525 8.4833 13.9515 8.395 13.8047 8.24121C13.6584 8.0877 13.5772 7.88106 13.5771 7.66699V5C13.5771 4.86078 13.5246 4.72825 13.4326 4.63184C13.3408 4.53569 13.2175 4.4834 13.0908 4.4834H2.90918C2.78252 4.4834 2.65918 4.53569 2.56738 4.63184C2.47535 4.72825 2.42285 4.86078 2.42285 5V17C2.42285 17.1392 2.47535 17.2717 2.56738 17.3682C2.65918 17.4643 2.78252 17.5166 2.90918 17.5166H13.0908C13.2175 17.5166 13.3408 17.4643 13.4326 17.3682C13.5246 17.2717 13.5771 17.1392 13.5771 17V14.333C13.5772 14.1189 13.6584 13.9123 13.8047 13.7588C13.9515 13.605 14.1525 13.5167 14.3633 13.5166C14.5741 13.5166 14.775 13.6049 14.9219 13.7588C15.0684 13.9123 15.1503 14.1188 15.1504 14.333V17C15.1504 17.5679 14.9349 18.1139 14.5498 18.5176C14.1642 18.9215 13.6392 19.1504 13.0908 19.1504H2.90918C2.36076 19.1504 1.83575 18.9215 1.4502 18.5176C1.06507 18.1139 0.849609 17.5679 0.849609 17V5L0.860352 4.78809C0.906857 4.29774 1.11327 3.83555 1.4502 3.48242C1.83575 3.0785 2.36076 2.84961 2.90918 2.84961H13.0908Z" fill="black" stroke="black" stroke-width="0.3"/>
<path d="M17.1816 7.84961C17.3621 7.84973 17.5377 7.91585 17.6689 8.03613L20.9414 11.0352C21.0065 11.0947 21.0586 11.1665 21.0947 11.2461C21.1309 11.326 21.1504 11.4126 21.1504 11.5C21.1504 11.5874 21.1309 11.674 21.0947 11.7539C21.0586 11.8335 21.0065 11.9053 20.9414 11.9648L17.6689 14.9639C17.5377 15.0841 17.3621 15.1503 17.1816 15.1504C17.001 15.1504 16.8247 15.0843 16.6934 14.9639C16.5617 14.8431 16.4854 14.6759 16.4854 14.499C16.4855 14.3223 16.5618 14.1558 16.6934 14.0352L18.751 12.1504H9.5459C9.36548 12.1504 9.18981 12.0841 9.05859 11.9639C8.92694 11.8432 8.84961 11.6768 8.84961 11.5C8.84961 11.3232 8.92694 11.1568 9.05859 11.0361C9.18981 10.9159 9.36548 10.8496 9.5459 10.8496H18.751L16.6934 8.96484C16.5618 8.84417 16.4855 8.67766 16.4854 8.50098C16.4854 8.32411 16.5617 8.15691 16.6934 8.03613C16.8247 7.91574 17.001 7.84961 17.1816 7.84961Z" fill="black" stroke="black" stroke-width="0.3"/>
</g>
</svg>
