<svg width="35" height="35" viewBox="0 0 35 35" fill="none" xmlns="http://www.w3.org/2000/svg">
<circle cx="17.5" cy="17.5" r="17.5" fill="#9858F3"/>
<path d="M10 14C10 13.4696 10.2107 12.9609 10.5858 12.5858C10.9609 12.2107 11.4696 12 12 12H24C24.5304 12 25.0391 12.2107 25.4142 12.5858C25.7893 12.9609 26 13.4696 26 14V22C26 22.5304 25.7893 23.0391 25.4142 23.4142C25.0391 23.7893 24.5304 24 24 24H12C11.4696 24 10.9609 23.7893 10.5858 23.4142C10.2107 23.0391 10 22.5304 10 22V14ZM12 13C11.7348 13 11.4804 13.1054 11.2929 13.2929C11.1054 13.4804 11 13.7348 11 14V14.217L18 18.417L25 14.217V14C25 13.7348 24.8946 13.4804 24.7071 13.2929C24.5196 13.1054 24.2652 13 24 13H12ZM25 15.383L20.292 18.208L25 21.105V15.383ZM24.966 22.259L19.326 18.788L18 19.583L16.674 18.788L11.034 22.258C11.0908 22.4708 11.2163 22.6589 11.391 22.7931C11.5657 22.9272 11.7797 23 12 23H24C24.2201 23 24.4341 22.9274 24.6088 22.7934C24.7834 22.6595 24.909 22.4716 24.966 22.259ZM11 21.105L15.708 18.208L11 15.383V21.105Z" fill="white"/>
</svg>
