<svg width="50" height="50" viewBox="0 0 50 50" fill="none" xmlns="http://www.w3.org/2000/svg">
<circle cx="25" cy="25" r="25" fill="#9858F3"/>
<g clip-path="url(#clip0_2288_2405)">
<path d="M14.2856 20.0002C14.2856 19.2424 14.5867 18.5157 15.1225 17.9799C15.6583 17.4441 16.385 17.1431 17.1428 17.1431H34.2856C35.0434 17.1431 35.7701 17.4441 36.306 17.9799C36.8418 18.5157 37.1428 19.2424 37.1428 20.0002V31.4288C37.1428 32.1865 36.8418 32.9133 36.306 33.4491C35.7701 33.9849 35.0434 34.2859 34.2856 34.2859H17.1428C16.385 34.2859 15.6583 33.9849 15.1225 33.4491C14.5867 32.9133 14.2856 32.1865 14.2856 31.4288V20.0002ZM17.1428 18.5716C16.7639 18.5716 16.4005 18.7221 16.1326 18.9901C15.8647 19.258 15.7142 19.6213 15.7142 20.0002V20.3102L25.7142 26.3102L35.7142 20.3102V20.0002C35.7142 19.6213 35.5637 19.258 35.2958 18.9901C35.0279 18.7221 34.6645 18.5716 34.2856 18.5716H17.1428ZM35.7142 21.9759L28.9885 26.0116L35.7142 30.1502V21.9759ZM35.6656 31.7988L27.6085 26.8402L25.7142 27.9759L23.8199 26.8402L15.7628 31.7974C15.844 32.1013 16.0232 32.37 16.2728 32.5617C16.5223 32.7534 16.8281 32.8573 17.1428 32.8574H34.2856C34.6001 32.8574 34.9058 32.7537 35.1553 32.5623C35.4048 32.3709 35.5842 32.1025 35.6656 31.7988ZM15.7142 30.1502L22.4399 26.0116L15.7142 21.9759V30.1502Z" fill="white"/>
</g>
<defs>
<clipPath id="clip0_2288_2405">
<rect width="22.8571" height="22.8571" fill="white" transform="translate(14.2856 15.7144)"/>
</clipPath>
</defs>
</svg>
