<svg width="162" height="35" viewBox="0 0 162 35" fill="none" xmlns="http://www.w3.org/2000/svg">
<path d="M5.944 9.32L17.016 2.92C17.7413 2.49333 18.3813 2.44 18.936 2.76C19.512 3.08 19.8 3.66666 19.8 4.52V25L17.016 26.6V6.12L12.856 8.52V29L10.072 30.6V10.12L5.944 12.52V33L3.16 34.6V14.12C3.16 13.544 3.288 12.9467 3.544 12.328C3.8 11.688 4.14133 11.1013 4.568 10.568C4.99467 10.0133 5.45333 9.59733 5.944 9.32ZM17.016 6.12V26.6L14.232 25V4.52L17.016 6.12ZM10.072 10.12V30.6L7.32 29V8.52L10.072 10.12ZM18.936 2.76C18.3813 2.44 17.7413 2.49333 17.016 2.92L5.944 9.32C5.45333 9.59733 4.99467 10.0133 4.568 10.568C4.14133 11.1013 3.8 11.688 3.544 12.328C3.288 12.9467 3.16 13.544 3.16 14.12V34.6L0.376 33V12.52C0.376 11.944 0.504 11.3467 0.76 10.728C1.016 10.088 1.35733 9.50133 1.784 8.968C2.21067 8.41333 2.66933 7.99733 3.16 7.72L14.232 1.32C14.9787 0.893333 15.6293 0.84 16.184 1.16L18.936 2.76ZM28.1315 9.32L35.0435 5.32C35.7688 4.89333 36.4088 4.84 36.9635 5.16C37.5395 5.48 37.8275 6.06667 37.8275 6.92V25.48C37.8275 26.0347 37.6888 26.632 37.4115 27.272C37.1555 27.912 36.8142 28.5093 36.3875 29.064C35.9822 29.5973 35.5342 30.0027 35.0435 30.28L28.1315 34.28C27.3848 34.7067 26.7342 34.76 26.1795 34.44C25.6248 34.12 25.3475 33.5333 25.3475 32.68V14.12C25.3475 13.544 25.4755 12.9467 25.7315 12.328C25.9875 11.688 26.3288 11.1013 26.7555 10.568C27.1822 10.0133 27.6408 9.59733 28.1315 9.32ZM28.1315 31.08L35.0435 27.08V8.52L28.1315 12.52V31.08ZM35.0435 8.52V27.08L32.2595 25.48V6.92L35.0435 8.52ZM35.0435 27.08L28.1315 31.08L25.3475 29.48L32.2595 25.48L35.0435 27.08ZM36.9955 5.16C36.4195 4.84 35.7688 4.89333 35.0435 5.32L28.1315 9.32C27.6408 9.59733 27.1822 10.0133 26.7555 10.568C26.3288 11.1013 25.9875 11.688 25.7315 12.328C25.4755 12.9467 25.3475 13.544 25.3475 14.12V32.68C25.3475 33.5333 25.6248 34.12 26.1795 34.44L23.3955 32.84C22.8408 32.52 22.5635 31.9333 22.5635 31.08V12.52C22.5635 11.944 22.6915 11.3467 22.9475 10.728C23.2035 10.088 23.5448 9.50133 23.9715 8.968C24.3982 8.41333 24.8568 7.99733 25.3475 7.72L32.2595 3.72C33.0062 3.29333 33.6568 3.24 34.2115 3.56L36.9955 5.16ZM48.9148 33.96C48.1894 34.3867 47.5494 34.44 46.9948 34.12C46.4401 33.8 46.1628 33.2133 46.1628 32.36L53.0748 28.36V6.6L55.8588 5V23.56C55.8588 24.1147 55.7201 24.712 55.4428 25.352C55.1868 25.992 54.8454 26.5893 54.4188 27.144C54.0134 27.6773 53.5654 28.0827 53.0748 28.36C53.0748 28.9147 52.9468 29.512 52.6908 30.152C52.4348 30.792 52.0934 31.3893 51.6668 31.944C51.2401 32.4773 50.7814 32.8827 50.2908 33.16L48.9148 33.96ZM46.1628 32.36C45.4161 32.7867 44.7654 32.84 44.2108 32.52C43.6561 32.2 43.3788 31.6133 43.3788 30.76V12.2L46.1628 10.6V32.36ZM55.8588 5L53.0748 6.6L50.2908 5L53.0748 3.4L55.8588 5ZM53.0748 6.6V28.36L50.2908 26.76V5L53.0748 6.6ZM53.0748 28.36L46.1628 32.36L43.3788 30.76L50.2908 26.76L53.0748 28.36ZM46.1628 32.36C46.1628 33.2133 46.4401 33.8 46.9948 34.12L44.2108 32.52C43.6561 32.2 43.3788 31.6133 43.3788 30.76L46.1628 32.36ZM46.1628 10.6L43.3788 12.2L40.5948 10.6L43.3788 9L46.1628 10.6ZM43.3788 12.2V30.76C43.3788 31.6133 43.6561 32.2 44.2108 32.52L41.4268 30.92C40.8721 30.6 40.5948 30.0133 40.5948 29.16V10.6L43.3788 12.2ZM66.402 28.52V12.52L61.41 15.4V12.2L74.146 4.84V8.04L69.154 10.92V26.92L74.146 24.04V27.24L61.41 34.6V31.4L66.402 28.52ZM66.402 28.52L61.41 31.4L58.626 29.8L63.618 26.92L66.402 28.52ZM61.41 31.4V34.6L58.626 33V29.8L61.41 31.4ZM74.146 24.04L69.154 26.92L66.402 25.32L71.394 22.44L74.146 24.04ZM66.402 12.52V28.52L63.618 26.92V10.92L66.402 12.52ZM74.146 4.84L61.41 12.2L58.626 10.6L71.394 3.24L74.146 4.84ZM61.41 12.2V15.4L58.626 13.8V10.6L61.41 12.2ZM79.7225 15.4C79.7225 14.824 79.8505 14.2267 80.1065 13.608C80.3625 12.968 80.7038 12.3813 81.1305 11.848C81.5572 11.2933 82.0158 10.8773 82.5065 10.6L92.2025 5V8.2L82.5065 13.8V20.84L92.2025 15.24V18.44L82.5065 24.04V31.08L92.2025 25.48V28.68L82.5065 34.28C81.7598 34.7067 81.1092 34.76 80.5545 34.44C79.9998 34.12 79.7225 33.5333 79.7225 32.68V15.4ZM92.2025 25.48L82.5065 31.08L79.7225 29.48L89.4185 23.88L92.2025 25.48ZM92.2025 15.24L82.5065 20.84L79.7225 19.24L89.4185 13.64L92.2025 15.24ZM92.2025 5L82.5065 10.6C82.0158 10.8773 81.5572 11.2933 81.1305 11.848C80.7038 12.3813 80.3625 12.968 80.1065 13.608C79.8505 14.2267 79.7225 14.824 79.7225 15.4V32.68C79.7225 33.5333 79.9998 34.12 80.5545 34.44L77.7705 32.84C77.2158 32.52 76.9385 31.9333 76.9385 31.08V13.8C76.9385 13.224 77.0665 12.6267 77.3225 12.008C77.5785 11.368 77.9198 10.7813 78.3465 10.248C78.7732 9.69333 79.2318 9.27733 79.7225 9L89.4185 3.4L92.2025 5ZM100.538 9.32L107.45 5.32C108.175 4.89333 108.815 4.84 109.37 5.16C109.946 5.48 110.234 6.06667 110.234 6.92V10.12L107.45 11.72V8.52L100.538 12.52V31.08L107.45 27.08V23.88L110.234 22.28V25.48C110.234 26.0347 110.095 26.632 109.818 27.272C109.562 27.912 109.22 28.5093 108.794 29.064C108.388 29.5973 107.94 30.0027 107.45 30.28L100.538 34.28C99.7911 34.7067 99.1404 34.76 98.5858 34.44C98.0311 34.12 97.7538 33.5333 97.7538 32.68V14.12C97.7538 13.544 97.8818 12.9467 98.1378 12.328C98.3938 11.688 98.7351 11.1013 99.1618 10.568C99.5884 10.0133 100.047 9.59733 100.538 9.32ZM110.234 22.28L107.45 23.88L104.666 22.28L107.45 20.68L110.234 22.28ZM107.45 23.88V27.08L104.666 25.48V22.28L107.45 23.88ZM107.45 27.08L100.538 31.08L97.7538 29.48L104.666 25.48L107.45 27.08ZM107.45 8.52V11.72L104.666 10.12V6.92L107.45 8.52ZM109.402 5.16C108.826 4.84 108.175 4.89333 107.45 5.32L100.538 9.32C100.047 9.59733 99.5884 10.0133 99.1618 10.568C98.7351 11.1013 98.3938 11.688 98.1378 12.328C97.8818 12.9467 97.7538 13.544 97.7538 14.12V32.68C97.7538 33.5333 98.0311 34.12 98.5858 34.44L95.8018 32.84C95.2471 32.52 94.9698 31.9333 94.9698 31.08V12.52C94.9698 11.944 95.0978 11.3467 95.3538 10.728C95.6098 10.088 95.9511 9.50133 96.3778 8.968C96.8044 8.41333 97.2631 7.99733 97.7538 7.72L104.666 3.72C105.412 3.29333 106.063 3.24 106.618 3.56L109.402 5.16ZM118.569 31.08L125.481 27.08V30.28L118.569 34.28C117.822 34.7067 117.172 34.76 116.617 34.44C116.062 34.12 115.785 33.5333 115.785 32.68V7.4L118.569 5.8V31.08ZM118.569 5.8L115.785 7.4L113.001 5.8L115.785 4.2L118.569 5.8ZM125.481 27.08L118.569 31.08L115.785 29.48L122.697 25.48L125.481 27.08ZM115.785 7.4V32.68C115.785 33.5333 116.062 34.12 116.617 34.44L113.833 32.84C113.278 32.52 113.001 31.9333 113.001 31.08V5.8L115.785 7.4ZM140.7 30.28L133.788 34.28C133.041 34.7067 132.39 34.76 131.836 34.44C131.281 34.12 131.004 33.5333 131.004 32.68V12.2L133.788 10.6V31.08L140.7 27.08V6.6L143.484 5V25.48C143.484 26.0347 143.345 26.632 143.068 27.272C142.812 27.912 142.47 28.5093 142.044 29.064C141.638 29.5973 141.19 30.0027 140.7 30.28ZM143.484 5L140.7 6.6L137.916 5L140.7 3.4L143.484 5ZM140.7 6.6V27.08L137.916 25.48V5L140.7 6.6ZM140.7 27.08L133.788 31.08L131.004 29.48L137.916 25.48L140.7 27.08ZM133.788 10.6L131.004 12.2L128.22 10.6L131.004 9L133.788 10.6ZM131.004 12.2V32.68C131.004 33.5333 131.281 34.12 131.836 34.44L129.052 32.84C128.497 32.52 128.22 31.9333 128.22 31.08V10.6L131.004 12.2ZM159.019 5.16C159.744 4.73333 160.384 4.68 160.939 5C161.494 5.32 161.771 5.90667 161.771 6.76V11.24C161.771 11.7947 161.643 12.392 161.387 13.032C161.131 13.672 160.79 14.2693 160.363 14.824C159.958 15.3573 159.51 15.7627 159.019 16.04C159.744 15.6133 160.384 15.56 160.939 15.88C161.494 16.2 161.771 16.7867 161.771 17.64V24.04C161.771 24.616 161.643 25.224 161.387 25.864C161.131 26.4827 160.79 27.0693 160.363 27.624C159.958 28.1573 159.51 28.5627 159.019 28.84L154.571 31.4C153.846 31.8267 153.206 31.88 152.651 31.56C152.096 31.24 151.819 30.6533 151.819 29.8V33L149.035 34.6V10.92L159.019 5.16ZM159.019 16.04V8.36L151.819 12.52V20.2L159.019 16.04ZM159.019 19.24L151.819 23.4V29.8L159.019 25.64V19.24ZM151.819 29.8C151.819 30.6533 152.096 31.24 152.651 31.56L149.867 29.96C149.312 29.64 149.035 29.0533 149.035 28.2L151.819 29.8ZM160.939 15.88C160.384 15.56 159.744 15.6133 159.019 16.04L156.235 14.44C156.96 14.0133 157.611 13.96 158.187 14.28L160.939 15.88ZM159.019 19.24V25.64L156.235 24.04V17.64L159.019 19.24ZM159.019 25.64L151.819 29.8L149.035 28.2L156.235 24.04L159.019 25.64ZM159.019 8.36V16.04L156.235 14.44V6.76L159.019 8.36ZM159.019 16.04L151.819 20.2L149.035 18.6L156.235 14.44L159.019 16.04ZM160.939 5C160.384 4.68 159.744 4.73333 159.019 5.16L149.035 10.92L146.251 9.32L156.235 3.56C156.96 3.13333 157.611 3.08 158.187 3.4L160.939 5ZM149.035 10.92V34.6L146.251 33V9.32L149.035 10.92Z" fill="#9858F3"/>
</svg>
