<svg width="24" height="25" viewBox="0 0 24 25" fill="none" xmlns="http://www.w3.org/2000/svg">
<path d="M12 22.916C13.1 22.916 14 22.016 14 20.916H10C10 22.016 10.9 22.916 12 22.916ZM18 16.916V11.916C18 8.84602 16.37 6.27602 13.5 5.59602V4.91602C13.5 4.08602 12.83 3.41602 12 3.41602C11.17 3.41602 10.5 4.08602 10.5 4.91602V5.59602C7.64 6.27602 6 8.83602 6 11.916V16.916L4 18.916V19.916H20V18.916L18 16.916ZM16 17.916H8V11.916C8 9.43602 9.51 7.41602 12 7.41602C14.49 7.41602 16 9.43602 16 11.916V17.916Z" fill="black" fill-opacity="0.54"/>
</svg>
