<svg width="33" height="33" viewBox="0 0 33 33" fill="none" xmlns="http://www.w3.org/2000/svg">
<g clip-path="url(#clip0_2287_450)">
<path d="M22.5 12.2727C22.5 13.9002 21.8535 15.461 20.7027 16.6118C19.5519 17.7626 17.9911 18.4091 16.3636 18.4091C14.7362 18.4091 13.1754 17.7626 12.0246 16.6118C10.8738 15.461 10.2273 13.9002 10.2273 12.2727C10.2273 10.6453 10.8738 9.08444 12.0246 7.93365C13.1754 6.78286 14.7362 6.13635 16.3636 6.13635C17.9911 6.13635 19.5519 6.78286 20.7027 7.93365C21.8535 9.08444 22.5 10.6453 22.5 12.2727Z" fill="white"/>
<path fill-rule="evenodd" clip-rule="evenodd" d="M0 16.3636C0 12.0237 1.72402 7.86158 4.7928 4.7928C7.86158 1.72402 12.0237 0 16.3636 0C20.7035 0 24.8657 1.72402 27.9345 4.7928C31.0033 7.86158 32.7273 12.0237 32.7273 16.3636C32.7273 20.7035 31.0033 24.8657 27.9345 27.9345C24.8657 31.0033 20.7035 32.7273 16.3636 32.7273C12.0237 32.7273 7.86158 31.0033 4.7928 27.9345C1.72402 24.8657 0 20.7035 0 16.3636ZM16.3636 2.04545C13.6673 2.0456 11.0257 2.80711 8.7431 4.24233C6.46044 5.67755 4.62944 7.72816 3.46084 10.1581C2.29223 12.5881 1.83352 15.2986 2.1375 17.9778C2.44148 20.657 3.49579 23.1959 5.17909 25.3023C6.63136 22.9623 9.82841 20.4545 16.3636 20.4545C22.8989 20.4545 26.0939 22.9602 27.5482 25.3023C29.2315 23.1959 30.2858 20.657 30.5898 17.9778C30.8938 15.2986 30.435 12.5881 29.2664 10.1581C28.0978 7.72816 26.2668 5.67755 23.9842 4.24233C21.7015 2.80711 19.06 2.0456 16.3636 2.04545Z" fill="white"/>
</g>
<defs>
<clipPath id="clip0_2287_450">
<rect width="32.7273" height="32.7273" fill="white"/>
</clipPath>
</defs>
</svg>
