<svg width="20" height="20" viewBox="0 0 20 20" fill="none" xmlns="http://www.w3.org/2000/svg">
<path opacity="0.54" fill-rule="evenodd" clip-rule="evenodd" d="M12.9183 11.6667H12.2567L12.0267 11.4384C12.8392 10.4909 13.3333 9.26257 13.3333 7.91673C13.3333 4.92507 10.9083 2.50007 7.91667 2.50007C4.925 2.50007 2.5 4.92507 2.5 7.91673C2.5 10.9084 4.925 13.3334 7.91667 13.3334C9.2625 13.3334 10.49 12.8401 11.4375 12.0284L11.6675 12.2567V12.9167L15.8325 17.0759L17.075 15.8334L12.9183 11.6667ZM7.91667 11.6667C5.84501 11.6667 4.16667 9.9884 4.16667 7.91673C4.16667 5.8459 5.84501 4.16673 7.91667 4.16673C9.98751 4.16673 11.6667 5.8459 11.6667 7.91673C11.6667 9.9884 9.98751 11.6667 7.91667 11.6667Z" fill="black"/>
</svg>
