<svg width="21" height="21" viewBox="0 0 21 21" fill="none" xmlns="http://www.w3.org/2000/svg">
<circle cx="10.7499" cy="10.7499" r="10" fill="black" fill-opacity="0.12"/>
<path d="M14.0833 13.0167C13.3704 13.0167 12.5761 13.201 11.96 12.8424L9.37287 11.3366C9.17046 11.2187 9.08333 10.9843 9.08333 10.75C9.08333 10.5158 9.17037 10.2813 9.37274 10.1633L11.8714 8.70665C12.5122 8.33307 13.3416 8.52782 14.0833 8.52782C15.0056 8.52782 15.75 7.78338 15.75 6.86116C15.75 5.93893 15.0056 5.19449 14.0833 5.19449C13.1611 5.19449 12.4167 5.93893 12.4167 6.86116C12.4167 7.0954 12.3296 7.32993 12.1273 7.44791L9.62864 8.90455C8.98783 9.27813 8.15842 9.08338 7.41667 9.08338C6.49444 9.08338 5.75 9.82782 5.75 10.75C5.75 11.6723 6.49444 12.4167 7.41667 12.4167C8.15828 12.4167 8.98771 12.2224 9.62803 12.5966L12.1907 14.0939C12.3777 14.2031 12.4611 14.4223 12.4611 14.6389C12.4611 15.5334 13.1889 16.2612 14.0833 16.2612C14.9778 16.2612 15.7056 15.5334 15.7056 14.6389C15.7056 13.7445 14.9778 13.0167 14.0833 13.0167Z" fill="black" fill-opacity="0.38"/>
</svg>
